 <svg  version="1.0" xmlns="http://www.w3.org/2000/svg"  width="900.000000pt" height="903.000000pt" viewBox="0 0 900.000000 903.000000"  preserveAspectRatio="xMidYMid meet">  <g transform="translate(0.000000,903.000000) scale(0.100000,-0.100000)" fill="#080808" stroke="none"> <path d="M1 8483 c1 -302 5 -521 9 -488 12 94 12 1035 0 1035 -7 0 -9 -188 -9 -547z"/> <path d="M8620 8691 c-8 -6 -26 -11 -39 -11 -38 0 -139 -60 -181 -107 -38 -44 -70 -120 -70 -169 0 -29 46 -165 59 -174 4 -3 32 -32 61 -65 71 -79 91 -90 216 -121 88 -22 110 -24 134 -14 16 7 33 9 38 6 6 -3 30 3 53 14 24 11 59 20 77 20 l32 0 0 255 c0 211 -2 255 -14 255 -8 0 -36 15 -62 33 -27 19 -67 40 -89 47 -22 7 -50 16 -62 21 -38 14 -137 20 -153 10z m187 -108 c60 -27 112 -72 133 -114 29 -55 29 -240 1 -283 -57 -86 -241 -91 -373 -9 -89 55 -148 147 -151 235 -2 53 0 59 33 88 82 74 139 98 242 99 54 1 89 -4 115 -16z"/> <path d="M7055 8324 c-27 -18 -62 -43 -77 -54 -39 -30 -159 -90 -179 -90 -10 0 -21 -5 -25 -11 -3 -6 -31 -22 -60 -35 -30 -13 -54 -28 -54 -33 0 -5 -3 -16 -6 -25 -12 -30 40 -17 151 39 59 30 113 55 118 55 34 0 224 160 213 178 -11 18 -26 13 -81 -24z"/> <path d="M614 8096 c-10 -8 -16 -17 -13 -21 11 -10 128 -14 134 -4 4 5 -4 9 -17 9 -13 1 -34 7 -48 15 -31 18 -32 18 -56 1z"/> <path d="M782 8083 c-25 -10 -2 -19 38 -15 29 3 38 7 29 13 -15 9 -46 10 -67 2z"/> <path d="M945 8080 c-7 -11 39 -25 55 -15 5 3 8 11 5 16 -8 12 -52 12 -60 -1z"/> <path d="M6580 8044 c0 -9 7 -14 17 -12 25 5 28 28 4 28 -12 0 -21 -6 -21 -16z"/> <path d="M4410 7960 c0 -13 28 -25 38 -16 3 4 0 11 -8 16 -20 13 -30 12 -30 0z"/> <path d="M6442 7957 c-9 -11 -10 -17 -2 -22 15 -9 23 -1 18 21 -3 15 -4 16 -16 1z"/> <path d="M4989 7929 c-10 -6 -7 -9 14 -9 29 0 35 5 14 13 -8 3 -20 1 -28 -4z"/> <path d="M4751 7911 c13 -11 28 -17 33 -14 11 7 -22 33 -42 33 -9 0 -6 -7 9 -19z"/> <path d="M5410 7915 c0 -8 8 -15 18 -15 10 0 21 -3 25 -6 3 -4 38 -7 77 -8 49 -1 70 2 70 11 0 9 -17 11 -63 6 -50 -4 -65 -2 -76 11 -17 20 -51 21 -51 1z"/> <path d="M5298 7913 c-38 -4 -50 -17 -25 -25 24 -9 87 4 87 18 0 8 -6 13 -12 12 -7 -1 -30 -3 -50 -5z"/> <path d="M5635 7910 c-16 -25 61 -33 338 -31 65 0 77 3 77 17 0 14 -16 16 -152 13 -84 -2 -176 0 -205 4 -29 4 -55 3 -58 -3z"/> <path d="M6115 7901 c-40 -7 -40 -7 -14 -18 20 -9 38 -8 75 2 27 7 42 14 34 14 -8 1 -24 3 -35 5 -11 2 -38 0 -60 -3z"/> <path d="M2 7280 c0 -19 2 -27 5 -17 2 9 2 25 0 35 -3 9 -5 1 -5 -18z"/> <path d="M4475 7200 c3 -5 15 -10 25 -10 10 0 22 5 25 10 4 6 -7 10 -25 10 -18 0 -29 -4 -25 -10z"/> <path d="M4665 7201 c17 -5 38 -12 49 -16 14 -6 18 -4 14 6 -3 9 -21 15 -49 16 -39 1 -40 1 -14 -6z"/> <path d="M4790 7200 c0 -5 -7 -10 -15 -10 -8 0 -15 -7 -15 -15 0 -8 5 -15 10 -15 6 0 15 -11 20 -25 7 -18 17 -25 37 -25 16 0 45 -9 65 -20 54 -28 61 -5 12 37 -21 19 -51 46 -67 59 -29 25 -47 31 -47 14z"/> <path d="M3787 7193 c-4 -3 -7 -14 -7 -23 0 -20 -34 -60 -72 -83 -18 -11 -28 -27 -30 -49 -2 -24 -10 -36 -30 -46 -15 -7 -36 -24 -46 -37 -14 -17 -30 -25 -51 -25 -16 0 -46 -8 -65 -17 -32 -16 -36 -22 -36 -59 0 -37 -4 -44 -39 -68 -22 -15 -42 -34 -45 -43 -4 -9 -16 -13 -33 -11 -22 2 -28 -2 -33 -22 -3 -14 -18 -31 -33 -38 -15 -7 -33 -25 -41 -40 -8 -15 -31 -40 -50 -55 -20 -15 -36 -33 -36 -40 0 -6 -19 -30 -41 -52 -75 -73 -129 -147 -134 -184 -3 -20 -10 -58 -15 -86 -25 -118 -31 -173 -25 -225 3 -30 8 -134 10 -230 2 -96 9 -206 16 -244 6 -37 12 -121 13 -186 1 -117 1 -118 34 -158 20 -26 32 -52 32 -71 0 -31 4 -34 49 -35 29 -1 46 -42 56 -140 4 -36 11 -66 15 -66 25 0 60 320 38 347 -13 17 -28 7 -28 -18 0 -14 -7 -19 -30 -19 -17 0 -29 3 -28 8 1 4 -5 19 -15 33 -13 20 -20 61 -27 160 -8 128 -23 291 -36 409 -9 80 -4 283 7 295 15 15 11 75 -5 75 -37 0 -23 48 50 171 19 31 34 63 34 71 0 22 42 57 76 64 16 3 36 16 44 29 23 36 122 150 134 154 23 8 68 57 82 91 19 44 43 70 64 70 10 0 23 7 30 15 7 9 15 13 18 11 2 -3 25 11 51 31 86 68 151 145 151 179 0 44 72 104 125 104 8 0 15 5 15 10 0 6 -7 10 -15 10 -8 0 -29 9 -47 20 -36 22 -41 23 -51 13z"/> <path d="M4260 7170 c-30 -4 -64 -6 -75 -3 -13 2 -28 -4 -39 -16 -16 -17 -31 -21 -85 -21 -74 0 -77 -2 -110 -49 l-23 -33 21 -21 c19 -19 22 -19 38 -5 38 33 242 100 368 120 11 2 20 10 20 18 0 18 -36 21 -115 10z"/> <path d="M4405 7140 c3 -5 12 -10 20 -10 8 0 17 5 20 10 4 6 -5 10 -20 10 -15 0 -24 -4 -20 -10z"/> <path d="M5155 7111 c-3 -6 -17 -11 -31 -11 -13 0 -24 -5 -24 -11 0 -13 67 -79 80 -79 6 0 10 -6 10 -14 0 -11 72 -36 105 -36 13 0 2 22 -22 45 -21 19 -35 25 -55 21 -34 -7 -57 18 -41 43 8 12 7 22 -2 35 -8 11 -15 13 -20 7z"/> <path d="M2 7070 c0 -19 2 -27 5 -17 2 9 2 25 0 35 -3 9 -5 1 -5 -18z"/> <path d="M5422 7089 c2 -7 10 -15 17 -17 8 -3 12 1 9 9 -2 7 -10 15 -17 17 -8 3 -12 -1 -9 -9z"/> <path d="M4450 7039 c-14 -4 -43 -8 -65 -9 -30 -2 -21 -5 35 -11 76 -9 106 -6 96 10 -9 13 -38 18 -66 10z"/> <path d="M5470 7034 c0 -8 11 -41 25 -74 14 -33 25 -66 25 -75 0 -17 25 -21 35 -5 4 6 25 8 54 4 31 -4 51 -2 55 5 8 13 -25 80 -53 105 -20 18 -22 18 -41 1 -16 -15 -22 -15 -35 -5 -8 7 -15 18 -15 25 0 6 -11 17 -25 23 -21 10 -25 9 -25 -4z"/> <path d="M4970 6985 c32 -34 58 -34 33 0 -10 13 -27 25 -37 25 -18 0 -18 -2 4 -25z"/> <path d="M5727 7003 c-11 -10 -8 -36 7 -65 15 -29 11 -154 -6 -175 -15 -18 0 -80 22 -96 13 -9 22 -34 30 -81 11 -71 30 -110 62 -127 17 -9 19 -17 13 -59 l-7 -49 47 -7 c60 -9 80 8 36 30 -37 20 -40 40 -6 62 30 19 32 34 6 34 -10 0 -31 10 -46 22 -26 20 -26 22 -10 34 17 13 17 17 3 61 -10 31 -24 52 -39 60 -39 20 -48 40 -37 81 6 20 17 46 24 57 8 11 14 32 14 47 0 15 5 30 10 33 6 3 10 14 10 23 0 13 -2 13 -14 -3 -18 -25 -41 -7 -50 39 -6 33 -40 86 -55 86 -4 0 -11 -3 -14 -7z"/> <path d="M4684 6976 c-17 -6 -51 -27 -75 -48 -27 -21 -62 -39 -89 -45 -24 -4 -45 -13 -47 -19 -5 -16 57 -24 81 -12 15 8 23 6 36 -13 17 -22 19 -22 51 -6 l34 16 -43 7 c-23 3 -42 10 -42 15 0 15 65 36 97 32 25 -4 34 0 48 21 10 14 25 26 34 26 27 0 33 12 13 26 -20 16 -55 16 -98 0z"/> <path d="M4195 6961 c-6 -11 33 -36 42 -27 7 7 -16 36 -28 36 -4 0 -10 -4 -14 -9z"/> <path d="M5320 6940 c0 -5 6 -10 14 -10 7 0 19 -6 25 -14 6 -8 21 -16 31 -19 35 -9 22 23 -15 39 -40 17 -55 18 -55 4z"/> <path d="M3 6855 c0 -33 2 -45 4 -27 2 18 2 45 0 60 -2 15 -4 0 -4 -33z"/> <path d="M4920 6865 c-7 -8 -27 -15 -45 -15 -40 0 -47 -7 -32 -31 14 -23 59 -25 77 -4 7 9 35 15 73 17 l62 3 -36 23 c-42 26 -81 28 -99 7z"/> <path d="M3500 6746 c0 -35 18 -42 30 -11 13 35 13 35 -10 35 -15 0 -20 -7 -20 -24z"/> <path d="M4710 6745 c-15 -19 -5 -35 24 -35 25 0 46 17 46 37 0 18 -55 17 -70 -2z"/> <path d="M3745 6709 c-38 -21 -78 -41 -87 -45 -20 -7 -22 -21 -9 -43 7 -10 17 -6 47 22 22 19 49 37 62 41 12 4 22 11 22 15 0 4 11 13 25 19 14 6 25 16 25 22 0 14 -7 12 -85 -31z"/> <path d="M4 6635 c0 -55 1 -76 3 -47 2 29 2 74 0 100 -2 26 -3 2 -3 -53z"/> <path d="M4482 6702 c-27 -4 -19 -22 10 -22 11 0 42 -8 67 -17 51 -18 84 -13 75 11 -9 22 -87 37 -152 28z"/> <path d="M4860 6690 c0 -5 9 -10 20 -10 11 0 20 5 20 10 0 6 -9 10 -20 10 -11 0 -20 -4 -20 -10z"/> <path d="M3587 6642 c-20 -22 -22 -42 -4 -42 19 0 34 13 41 38 9 28 -13 30 -37 4z"/> <path d="M4462 6647 c-15 -17 -6 -27 25 -27 18 0 24 5 21 17 -4 22 -31 28 -46 10z"/> <path d="M4750 6610 c0 -5 15 -10 33 -10 24 0 28 3 17 10 -20 13 -50 13 -50 0z"/> <path d="M4925 6610 c28 -12 47 -12 40 0 -3 6 -18 10 -33 9 -24 0 -25 -1 -7 -9z"/> <path d="M4855 6511 c14 -13 69 -18 75 -6 3 6 -14 11 -40 13 -30 2 -42 0 -35 -7z"/> <path d="M4436 6494 c-10 -25 -7 -33 15 -45 27 -14 46 2 24 21 -8 7 -15 19 -15 26 0 19 -16 18 -24 -2z"/> <path d="M0 3305 c0 -1759 3 -3196 6 -3192 7 7 7 6378 -1 6385 -3 3 -5 -1434 -5 -3193z"/> <path d="M4540 6415 c-26 -14 -23 -17 31 -29 32 -7 41 1 28 25 -12 22 -25 23 -59 4z"/> <path d="M4838 6403 c-10 -2 -18 -11 -18 -19 0 -22 -31 -30 -44 -12 -7 10 -36 19 -69 23 -54 7 -59 6 -64 -14 -3 -14 -13 -21 -28 -21 -15 0 -26 -8 -30 -21 -6 -18 -12 -20 -38 -15 -116 24 -322 14 -372 -18 -11 -7 -36 -16 -55 -19 -19 -3 -50 -9 -68 -13 -21 -4 -43 -2 -58 6 -20 11 -33 11 -76 -3 -29 -8 -79 -23 -110 -32 -56 -15 -83 -35 -60 -43 7 -2 12 -10 12 -18 0 -12 -4 -12 -20 -2 -10 7 -23 8 -27 4 -4 -5 -2 -11 5 -13 6 -3 12 -11 12 -18 0 -24 21 -28 36 -6 8 12 24 21 35 21 11 0 34 7 51 16 25 13 35 14 54 4 13 -7 34 -10 51 -6 69 17 135 27 223 35 75 7 99 6 115 -5 25 -18 109 -18 127 -1 7 8 39 16 71 20 32 3 70 13 84 22 23 15 26 15 37 -1 12 -16 15 -16 60 1 45 17 47 17 60 0 12 -16 15 -16 57 15 41 30 48 32 107 27 34 -3 79 -1 100 4 23 5 48 4 68 -3 22 -8 39 -8 60 0 27 10 28 11 7 17 -11 4 -36 25 -53 47 -30 37 -34 39 -74 33 -22 -3 -51 -11 -63 -17 -17 -8 -27 -6 -51 11 -17 11 -32 20 -34 20 -1 -1 -11 -3 -20 -6z m-148 -62 c0 -25 -14 -41 -36 -41 -22 0 -23 2 -12 25 11 24 48 36 48 16z m283 -6 c1 -5 -6 -11 -15 -13 -11 -2 -18 3 -18 13 0 17 30 18 33 0z m-583 -85 c0 -5 -9 -10 -20 -10 -11 0 -20 5 -20 10 0 6 9 10 20 10 11 0 20 -4 20 -10z"/> <path d="M5865 6310 c3 -5 13 -10 21 -10 8 0 12 5 9 10 -3 6 -13 10 -21 10 -8 0 -12 -4 -9 -10z"/> <path d="M5910 6283 c1 -32 41 -129 60 -143 23 -18 20 -40 -6 -40 -19 0 -18 -39 3 -62 31 -34 19 -369 -14 -410 -6 -7 -14 -49 -16 -92 -4 -69 -8 -81 -25 -87 -14 -5 -19 -14 -15 -28 3 -11 -2 -30 -11 -43 -20 -29 -20 -72 0 -102 19 -31 6 -40 -24 -16 -21 18 -52 86 -52 117 0 8 16 29 36 47 26 24 35 39 32 57 -4 33 -40 33 -48 0 -8 -33 -26 -37 -41 -10 -10 19 -8 24 9 38 19 14 20 21 12 56 -5 22 -14 41 -19 43 -15 5 -96 113 -120 160 -18 35 -18 39 -3 49 16 11 16 12 0 12 -21 1 -24 31 -5 50 10 10 6 18 -20 39 -31 27 -42 50 -48 100 -1 14 -8 28 -14 30 -6 2 -11 11 -11 20 -1 17 -33 62 -44 62 -11 0 -6 -27 9 -56 17 -34 19 -66 4 -81 -7 -7 -6 -20 4 -44 28 -67 47 -137 47 -175 0 -22 6 -49 13 -60 59 -103 112 -211 130 -264 18 -53 28 -173 32 -400 4 -168 16 -285 33 -316 10 -18 1 -67 -17 -88 -16 -19 -32 -119 -43 -271 -9 -126 -11 -180 -8 -380 1 -100 -11 -208 -26 -229 -8 -11 -14 -30 -14 -41 0 -11 -6 -29 -14 -40 -7 -11 -25 -42 -40 -69 -41 -73 -96 -135 -144 -158 -24 -12 -66 -42 -94 -65 -43 -37 -55 -43 -80 -38 -25 6 -35 1 -76 -43 -43 -45 -50 -48 -84 -44 -24 3 -38 0 -38 -7 0 -6 -4 -11 -10 -11 -20 0 -9 21 16 32 23 11 25 17 20 47 -7 42 -26 64 -50 55 -14 -5 -16 -14 -10 -51 6 -44 6 -44 -22 -41 -24 2 -30 -1 -32 -19 -3 -18 -10 -23 -33 -23 -23 0 -34 -8 -50 -35 -16 -27 -28 -35 -49 -35 -19 0 -29 -6 -33 -20 -9 -35 -77 -17 -77 20 0 19 -32 36 -50 25 -5 -3 -10 -19 -10 -34 0 -15 -11 -41 -24 -56 -20 -24 -27 -26 -40 -16 -11 10 -23 10 -58 -1 -75 -22 -124 -24 -206 -10 -41 7 -55 5 -64 -6 -7 -8 -23 -18 -36 -23 -33 -13 -22 -33 21 -40 20 -3 42 -11 49 -17 18 -14 208 -18 234 -4 10 5 44 13 74 17 69 9 220 53 241 71 8 8 50 25 93 39 81 26 140 52 321 141 87 42 126 68 178 119 38 36 79 70 92 75 37 14 143 234 155 320 26 195 34 236 46 251 18 20 18 29 -1 29 -24 0 -47 54 -35 85 5 14 11 54 13 88 2 34 9 72 15 84 9 16 9 24 1 29 -17 10 12 257 32 270 12 7 11 73 -2 194 -10 88 -10 105 5 144 12 30 24 46 40 50 18 4 26 18 38 63 19 67 48 219 48 246 0 10 11 42 25 70 15 33 28 87 35 147 7 52 16 100 22 107 5 7 9 62 8 125 -1 62 -2 124 -1 138 4 85 -2 138 -20 168 -11 19 -19 52 -19 77 0 24 -8 58 -17 77 -9 18 -19 40 -23 48 -7 16 -60 27 -60 13z"/> <path d="M5183 6230 c-36 -18 -73 -46 -93 -72 -19 -24 -38 -44 -42 -46 -12 -5 -10 -32 2 -32 6 0 37 11 70 25 72 30 86 31 100 4 10 -18 14 -19 33 -6 47 30 90 37 132 23 21 -8 41 -19 43 -25 6 -17 27 -13 46 8 14 15 15 24 6 40 -11 21 -30 29 -30 12 0 -15 -83 0 -113 21 -21 14 -36 18 -59 12 l-32 -6 17 26 c18 27 15 46 -7 46 -7 0 -40 -13 -73 -30z"/> <path d="M4517 6163 c-4 -3 -7 -14 -7 -23 0 -10 -16 -28 -35 -41 -37 -25 -49 -44 -39 -60 6 -10 74 53 74 69 0 5 11 14 25 20 29 13 34 42 7 42 -10 0 -22 -3 -25 -7z"/> <path d="M3630 6147 c-14 -7 -30 -27 -35 -44 -6 -18 -21 -43 -33 -56 -12 -13 -22 -28 -22 -34 0 -6 -13 -27 -30 -48 -16 -20 -32 -46 -36 -58 -4 -12 -24 -43 -45 -68 -22 -26 -39 -51 -39 -56 0 -5 -9 -16 -20 -26 -11 -9 -20 -25 -20 -36 0 -10 -20 -41 -45 -69 -42 -47 -55 -72 -37 -72 17 0 130 117 150 156 11 22 27 46 36 53 8 7 13 18 10 26 -3 7 7 17 25 23 20 7 31 18 31 30 0 11 7 25 15 32 8 7 15 21 15 32 0 11 20 44 45 72 25 29 45 60 45 69 0 22 21 67 32 67 4 0 8 5 8 10 0 14 -20 12 -50 -3z"/> <path d="M4851 6131 c-11 -7 -10 -10 5 -13 26 -5 64 2 64 13 0 12 -51 11 -69 0z"/> <path d="M5480 6033 c0 -5 4 -15 10 -23 11 -18 25 -7 17 15 -6 15 -27 21 -27 8z"/> <path d="M5225 6009 c-4 -6 -5 -13 -2 -16 7 -7 27 6 27 18 0 12 -17 12 -25 -2z"/> <path d="M5080 5980 c-12 -8 -11 -10 8 -10 12 0 22 5 22 10 0 13 -11 13 -30 0z"/> <path d="M3765 5610 c-16 -4 -52 -17 -80 -29 -27 -12 -59 -26 -70 -31 -11 -5 -30 -12 -42 -15 -34 -9 -83 -63 -83 -91 0 -27 14 -30 50 -9 14 8 42 14 62 15 35 0 78 14 140 46 42 22 67 17 86 -16 15 -26 22 -29 59 -28 33 2 47 -3 63 -20 26 -27 47 -28 55 -2 8 25 16 25 39 -1 15 -18 24 -20 62 -14 38 5 54 2 97 -20 29 -15 65 -39 80 -53 l28 -26 -22 -17 -21 -16 21 -46 c22 -47 27 -112 12 -136 -10 -15 -61 -8 -61 9 0 6 -7 10 -15 10 -8 0 -37 14 -65 30 -28 17 -62 30 -76 30 -14 0 -32 6 -39 14 -17 17 -175 30 -242 20 -26 -4 -57 -13 -68 -20 -24 -17 -55 -18 -55 -1 0 12 51 39 99 53 18 5 20 8 10 15 -22 14 -58 10 -92 -8 -48 -27 -77 -54 -77 -74 0 -13 -13 -22 -40 -30 -32 -10 -39 -16 -34 -28 4 -9 8 -31 8 -50 1 -34 3 -35 61 -49 82 -19 195 -27 195 -13 0 6 -8 11 -18 11 -10 0 -28 14 -41 30 -22 30 -22 31 -4 68 13 27 25 38 45 40 24 3 27 -1 33 -39 4 -24 17 -56 28 -71 18 -24 28 -28 70 -28 42 0 54 5 83 34 24 24 34 43 34 65 0 53 43 50 110 -7 31 -27 34 -33 23 -51 -18 -29 -17 -31 20 -31 19 0 36 -3 40 -6 3 -4 -5 -27 -18 -52 -34 -65 -17 -74 37 -21 24 24 57 52 72 63 15 10 41 39 57 64 40 64 39 115 -6 217 -19 44 -35 96 -35 116 0 74 -84 144 -185 156 -22 3 -54 11 -70 18 -49 22 -267 39 -320 25z m173 -72 c21 -21 13 -38 -17 -38 -33 0 -46 13 -37 35 7 18 37 20 54 3z m122 -23 c30 -36 -30 -62 -81 -35 -26 15 -24 27 9 38 39 15 58 14 72 -3z m-70 -379 c0 -7 -6 -21 -14 -31 -13 -18 -14 -18 -25 3 -16 30 3 69 25 51 8 -6 14 -17 14 -23z m-280 -36 c12 -23 6 -40 -14 -40 -18 0 -49 37 -41 49 11 18 44 12 55 -9z"/> <path d="M5282 5558 c-8 -8 -52 -13 -130 -14 -136 -1 -258 -24 -328 -63 -39 -21 -50 -34 -62 -69 -11 -33 -11 -47 -3 -55 9 -9 16 -7 29 10 13 16 31 23 72 27 30 2 111 12 180 21 142 18 184 20 199 10 6 -3 27 -1 46 6 28 10 42 11 67 1 21 -8 36 -8 42 -2 5 5 14 6 20 1 6 -4 32 -11 59 -14 42 -6 47 -5 47 13 0 24 -44 57 -139 104 -83 41 -82 41 -99 24z"/> <path d="M3162 5278 c-15 -15 -16 -38 -2 -38 12 0 23 25 18 40 -2 7 -7 7 -16 -2z"/> <path d="M4045 5260 c-3 -5 1 -10 11 -10 9 0 39 -13 66 -30 26 -16 56 -30 65 -30 14 0 14 2 -2 20 -20 23 -94 60 -118 60 -9 0 -19 -4 -22 -10z"/> <path d="M4740 5234 c-13 -32 -13 -44 0 -44 6 0 10 8 10 17 0 9 7 25 17 35 15 17 15 18 -1 18 -9 0 -21 -12 -26 -26z"/> <path d="M4997 5249 c8 -8 16 -8 30 0 16 9 14 10 -11 11 -22 0 -27 -3 -19 -11z"/> <path d="M4869 5178 c-70 -74 -100 -138 -64 -138 9 0 15 9 15 25 0 20 5 25 24 25 13 0 26 7 30 15 3 8 14 15 24 15 11 0 25 7 32 15 28 34 70 13 70 -35 0 -31 31 -88 50 -93 10 -3 41 1 69 7 58 13 91 49 91 99 0 40 24 43 67 9 21 -16 47 -31 58 -33 36 -7 21 -31 -33 -52 -66 -25 -62 -43 9 -40 40 2 58 8 71 23 9 11 28 20 42 20 18 0 30 8 38 25 14 32 -2 52 -49 61 -19 4 -55 17 -81 29 -26 12 -80 30 -120 40 -73 17 -84 17 -237 -1 l-50 -5 25 20 25 21 -28 0 c-20 0 -40 -14 -78 -52z m281 -54 c0 -28 -3 -35 -17 -32 -31 6 -29 68 2 68 11 0 15 -10 15 -36z"/> <path d="M5328 5220 c12 -5 22 -14 22 -19 0 -14 30 -22 48 -12 15 9 15 10 -3 16 -11 4 -28 11 -37 16 -10 5 -26 9 -35 8 -14 0 -13 -2 5 -9z"/> <path d="M2652 5072 c-6 -15 -16 -45 -23 -67 -6 -22 -16 -48 -21 -59 -14 -27 24 -65 46 -46 18 14 21 72 6 100 -7 13 -6 21 5 30 16 14 20 56 6 64 -5 3 -13 -7 -19 -22z"/> <path d="M6065 5093 c-31 -8 -42 -23 -16 -23 41 0 107 -38 135 -79 26 -37 28 -45 27 -153 0 -62 -6 -131 -11 -153 -6 -22 -16 -58 -21 -80 -11 -45 -35 -119 -48 -150 -4 -11 -16 -47 -26 -80 -9 -33 -23 -75 -31 -93 -14 -33 -19 -72 -8 -72 12 0 43 46 50 75 4 16 17 45 29 65 12 20 26 51 30 70 9 43 31 88 57 116 11 12 23 46 28 75 5 30 14 79 20 109 13 70 3 225 -19 267 -9 18 -40 50 -70 73 -53 38 -76 45 -126 33z"/> <path d="M2776 5067 c-17 -13 -18 -26 -13 -208 4 -165 8 -203 27 -254 42 -118 97 -215 121 -215 25 0 19 33 -15 70 -21 23 -36 50 -36 65 0 14 -9 57 -20 97 -20 75 -23 110 -18 256 3 77 5 85 28 98 14 7 37 11 53 8 29 -6 57 9 57 32 0 16 -34 35 -80 44 -19 4 -46 10 -60 14 -15 4 -32 2 -44 -7z"/> <path d="M4880 5044 c0 -23 24 -44 52 -44 20 0 42 -11 65 -30 32 -29 83 -41 83 -20 0 6 -8 10 -18 10 -11 0 -29 9 -42 20 -13 11 -28 20 -35 20 -6 0 -22 11 -35 25 -20 22 -70 35 -70 19z"/> <path d="M6070 4941 c-12 -8 -11 -17 9 -58 28 -61 28 -90 1 -183 -36 -124 -52 -192 -57 -247 -13 -138 48 9 101 243 36 160 8 284 -54 245z"/> <path d="M4236 4915 c-9 -13 -16 -32 -16 -40 0 -9 -16 -48 -35 -87 -19 -38 -40 -91 -46 -116 -5 -26 -24 -69 -41 -95 -32 -50 -40 -96 -20 -119 22 -27 161 -89 211 -95 65 -7 67 8 5 45 -76 44 -98 67 -112 115 -13 43 -12 49 10 89 14 26 37 50 58 60 19 10 48 31 63 48 24 27 28 39 25 78 -3 42 -6 47 -25 45 -22 -3 -26 3 -38 65 -8 38 -17 40 -39 7z"/> <path d="M4372 4909 c-7 -12 -11 -23 -9 -25 6 -6 37 25 37 37 0 16 -15 10 -28 -12z"/> <path d="M3086 4798 c-18 -25 -20 -56 -6 -78 8 -12 13 -11 32 8 19 17 23 30 20 57 -5 40 -23 46 -46 13z"/> <path d="M4869 4719 c-12 -7 -11 -11 3 -25 17 -17 38 -12 38 11 0 17 -23 25 -41 14z"/> <path d="M3149 4647 c-2 -32 0 -62 5 -67 11 -11 12 -101 1 -183 -9 -65 6 -107 36 -107 25 0 32 35 25 107 -6 56 -8 103 -6 141 3 44 -14 112 -35 138 l-23 29 -3 -58z"/> <path d="M2934 4556 c-7 -28 22 -86 43 -86 10 0 12 11 7 43 -10 66 -38 90 -50 43z"/> <path d="M4385 4564 c-11 -9 -39 -24 -63 -35 -38 -16 -42 -21 -32 -38 13 -25 42 -34 80 -26 31 7 58 -4 103 -42 16 -13 33 -21 38 -17 17 10 9 36 -29 82 -20 26 -42 56 -48 66 -14 26 -25 28 -49 10z"/> <path d="M4622 4544 c-36 -25 -28 -52 19 -64 23 -6 47 -9 55 -6 28 11 64 -15 64 -46 0 -26 3 -28 38 -28 27 0 45 7 60 23 33 35 28 48 -15 42 -35 -6 -40 -3 -61 29 -40 58 -114 82 -160 50z"/> <path d="M2717 4448 c-17 -95 -19 -128 -8 -128 5 0 26 -13 44 -30 48 -42 59 -39 51 13 -7 42 -64 176 -75 177 -4 0 -9 -15 -12 -32z"/> <path d="M3340 4436 c0 -8 15 -17 36 -21 42 -7 52 -2 34 20 -16 19 -70 20 -70 1z"/> <path d="M5892 4398 c-18 -18 -15 -28 8 -28 13 0 20 7 20 20 0 23 -10 26 -28 8z"/> <path d="M2982 4328 c-5 -7 -13 -23 -16 -35 -5 -16 -15 -23 -31 -23 -13 0 -26 -4 -29 -8 -9 -16 32 -63 85 -98 43 -29 64 -36 109 -37 30 -1 72 2 93 6 30 7 37 12 37 32 0 33 -13 38 -59 24 -32 -9 -50 -9 -86 1 -62 17 -100 47 -84 66 6 8 17 14 25 14 18 0 64 22 64 31 0 7 -73 39 -89 39 -5 0 -13 -6 -19 -12z"/> <path d="M3706 4312 c-8 -13 11 -35 23 -28 16 10 14 36 -3 36 -8 0 -17 -4 -20 -8z"/> <path d="M4255 4267 c-4 -10 -5 -21 -1 -24 10 -10 18 4 13 24 -4 17 -4 17 -12 0z"/> <path d="M3575 4179 c-4 -5 -3 -22 1 -37 4 -15 6 -34 5 -44 -1 -9 7 -31 19 -50 11 -18 20 -41 20 -52 0 -10 16 -44 35 -76 19 -32 35 -60 35 -64 0 -3 14 -25 30 -48 17 -22 30 -51 30 -64 0 -13 7 -29 16 -36 9 -7 33 -30 55 -50 29 -29 47 -38 72 -38 18 0 36 3 40 6 5 6 -20 71 -49 124 -7 14 -19 36 -25 50 -54 112 -75 160 -84 190 -8 26 -17 36 -37 40 -24 5 -88 76 -88 98 0 10 -53 62 -62 62 -4 0 -10 -5 -13 -11z"/> <path d="M4597 4156 c-20 -16 -16 -21 28 -30 17 -4 44 -17 60 -31 24 -19 28 -26 17 -36 -12 -13 -30 -14 -144 -7 -67 4 -103 29 -93 65 4 19 0 25 -22 34 -53 20 -143 -10 -143 -48 0 -17 14 -17 51 3 25 12 37 13 65 4 19 -6 34 -14 34 -16 0 -9 -52 -74 -59 -74 -4 0 -22 14 -39 31 -25 25 -35 29 -46 20 -10 -9 -15 -8 -20 4 -7 19 -72 20 -106 0 -14 -8 -37 -14 -52 -15 -15 0 -29 -4 -32 -9 -3 -4 -24 -11 -47 -15 -55 -9 -79 -23 -79 -45 0 -28 26 -46 44 -32 10 8 21 9 33 3 56 -28 93 -41 131 -46 l42 -6 0 35 c0 38 6 41 43 24 18 -8 30 -8 48 2 17 8 83 13 214 15 244 3 323 -3 344 -27 13 -17 30 -19 128 -18 121 1 133 7 91 46 -17 15 -42 22 -95 26 -40 3 -85 13 -100 21 -67 36 -99 46 -132 44 -30 -3 -37 1 -39 18 -3 19 -75 74 -97 74 -5 0 -18 -7 -28 -14z"/> <path d="M3380 4130 c0 -11 5 -20 10 -20 6 0 10 9 10 20 0 11 -4 20 -10 20 -5 0 -10 -9 -10 -20z"/> <path d="M3245 4033 c4 -43 15 -111 26 -151 10 -40 19 -86 19 -103 0 -17 6 -43 14 -57 8 -15 33 -66 56 -114 40 -85 50 -96 172 -205 19 -17 29 -37 33 -71 4 -26 11 -60 16 -76 5 -16 9 -44 9 -62 0 -31 9 -85 45 -259 8 -38 17 -92 21 -120 3 -27 10 -57 15 -66 4 -9 10 -48 12 -86 3 -38 9 -78 15 -89 5 -10 17 -59 26 -109 10 -49 23 -99 30 -110 8 -11 16 -38 18 -60 3 -22 15 -65 28 -95 12 -30 26 -78 30 -106 4 -28 13 -61 19 -72 6 -11 11 -31 11 -43 0 -11 7 -42 15 -68 8 -25 31 -95 50 -156 35 -106 55 -160 75 -197 6 -10 10 -25 10 -33 0 -19 58 -124 80 -145 3 -3 12 -18 20 -35 15 -29 26 -36 99 -70 38 -17 91 -20 91 -5 0 6 -6 10 -14 10 -7 0 -19 7 -27 16 -7 8 -33 26 -58 39 -39 20 -54 36 -98 115 -29 51 -53 98 -53 105 0 7 -12 36 -26 64 -14 29 -28 68 -30 89 -3 20 -13 66 -24 102 -10 36 -28 99 -39 140 -12 41 -26 89 -32 105 -6 17 -16 48 -21 70 -6 22 -14 47 -19 55 -5 8 -12 22 -15 30 -3 8 -12 28 -20 43 -26 52 -14 74 30 57 24 -9 26 -7 26 15 0 14 -4 33 -9 43 -59 112 -81 181 -87 270 -5 65 -13 111 -24 132 -6 10 -10 34 -10 52 0 18 -7 58 -16 88 -9 30 -22 87 -29 125 -8 39 -19 86 -25 105 -6 19 -11 72 -11 117 0 66 -4 87 -20 107 -10 13 -19 28 -19 33 0 4 -11 25 -25 45 -14 20 -25 46 -25 57 0 15 -6 21 -21 21 -24 0 -48 26 -49 52 0 9 -11 34 -25 54 -14 20 -25 44 -25 52 0 9 -14 30 -31 48 -36 37 -33 74 4 74 21 1 20 2 -6 21 -19 14 -26 27 -22 39 3 11 -4 30 -20 48 -14 16 -25 36 -25 45 0 8 -11 31 -25 51 -14 20 -25 41 -25 47 0 14 -46 59 -60 59 -8 0 -10 -23 -5 -77z"/> <path d="M4354 3819 c-10 -17 23 -46 37 -32 7 7 9 19 6 27 -7 18 -33 21 -43 5z"/> <path d="M4490 3720 c-32 -60 17 -105 62 -57 13 13 30 27 38 30 12 4 12 6 -2 6 -10 1 -22 10 -28 21 -14 26 -56 26 -70 0z"/> <path d="M4130 3628 c0 -13 5 -30 10 -38 8 -13 11 -13 24 0 17 18 4 60 -19 60 -9 0 -15 -9 -15 -22z"/> <path d="M3870 3585 c0 -13 24 -55 32 -55 5 0 8 -26 7 -57 -3 -50 1 -64 26 -102 17 -24 35 -52 41 -62 16 -28 46 -59 56 -59 14 0 47 42 48 60 0 16 -18 40 -31 40 -4 0 -9 -9 -12 -21 -9 -35 -30 -11 -23 26 12 61 -3 109 -40 134 -18 13 -41 41 -51 62 -11 25 -24 39 -35 39 -10 0 -18 -2 -18 -5z"/> <path d="M4267 3406 c-3 -7 0 -19 6 -25 6 -6 10 -31 8 -55 -2 -35 2 -48 21 -65 l23 -22 -23 -6 c-26 -6 -29 -18 -6 -27 27 -10 34 -7 34 18 0 16 7 27 20 31 25 8 26 32 2 59 -10 12 -25 40 -32 64 -13 42 -42 58 -53 28z"/> <path d="M4544 3385 c-8 -20 4 -35 27 -35 21 0 25 20 7 38 -16 16 -27 15 -34 -3z"/> <path d="M4119 3229 l-22 -32 31 -28 c36 -32 52 -36 52 -14 0 8 -4 15 -9 15 -17 0 -21 33 -6 56 19 30 19 34 -4 34 -11 0 -30 -14 -42 -31z"/> <path d="M4620 3235 c0 -11 -3 -30 -6 -41 -4 -15 0 -23 12 -28 25 -10 27 -2 10 46 -8 23 -15 34 -16 23z"/> <path d="M4814 3226 c-7 -19 12 -46 33 -46 21 0 13 54 -10 58 -9 2 -20 -4 -23 -12z"/> <path d="M4193 3205 c-3 -9 -3 -18 0 -21 9 -9 27 6 27 22 0 19 -19 18 -27 -1z"/> <path d="M4442 3206 c-14 -7 -20 -16 -16 -26 4 -8 9 -25 11 -37 7 -30 18 -29 48 3 28 30 31 44 13 62 -14 14 -25 14 -56 -2z"/> <path d="M4251 3154 c-6 -14 -9 -30 -6 -35 7 -11 85 -12 85 -1 0 4 -15 19 -34 34 l-33 27 -12 -25z"/> <path d="M5597 3143 c-12 -12 -7 -50 7 -63 8 -6 25 -33 37 -58 21 -43 23 -59 21 -227 -1 -134 -5 -191 -17 -224 -8 -24 -15 -59 -15 -78 0 -20 -7 -74 -16 -122 -8 -47 -22 -123 -30 -167 -7 -45 -14 -101 -14 -126 0 -24 -6 -68 -14 -98 -18 -73 -29 -143 -31 -210 -2 -30 -7 -131 -13 -225 -12 -212 -6 -908 11 -1195 6 -118 12 -245 12 -283 l0 -67 55 0 c55 1 55 1 27 16 -23 12 -26 18 -17 34 6 10 15 22 20 25 6 3 10 15 10 26 0 10 5 19 10 19 6 0 10 5 10 11 0 8 -4 8 -14 0 -19 -16 -46 22 -46 66 0 35 25 47 36 18 4 -11 21 -15 58 -15 65 0 75 7 69 47 -6 39 -25 43 -43 9 -21 -39 -37 -38 -75 6 -41 48 -44 71 -12 85 19 9 28 6 51 -14 34 -29 61 -16 33 15 -20 22 -23 72 -4 72 9 0 9 2 -1 8 -7 5 -17 35 -22 68 -10 63 -33 103 -68 119 -25 11 -30 57 -10 99 9 21 8 33 -7 65 -21 46 -15 60 21 53 24 -4 26 -2 19 14 -4 10 -10 35 -13 54 -2 19 -12 43 -20 53 -15 17 -15 19 1 28 29 16 22 71 -13 104 -16 16 -30 36 -30 46 0 25 83 71 114 63 21 -5 26 -2 32 20 9 36 0 42 -26 16 -20 -20 -23 -20 -45 -6 -14 9 -31 16 -40 16 -9 0 -18 7 -21 15 -8 21 15 74 37 86 27 14 24 40 -7 64 -23 19 -26 26 -20 58 4 20 13 43 21 51 10 10 15 36 15 84 0 73 13 98 43 86 10 -3 20 2 26 15 16 29 15 30 -29 37 -35 6 -40 10 -40 33 0 14 -3 36 -6 49 -5 18 -2 24 15 29 22 6 27 18 11 28 -14 9 -12 51 4 83 8 17 10 35 5 47 -13 34 -10 45 18 56 l26 10 -21 15 c-32 22 -27 31 20 37 30 4 48 1 59 -9 21 -19 55 -18 63 2 17 45 -50 77 -105 50 -32 -16 -59 -21 -59 -11 0 3 5 14 12 25 9 15 9 24 -1 42 -13 25 -9 41 24 98 10 17 11 28 4 37 -6 6 -8 21 -4 33 4 12 2 27 -5 35 -18 21 -2 59 33 75 22 11 34 26 41 52 6 21 21 45 33 53 24 17 22 32 -10 78 -17 25 -17 32 -6 60 27 69 57 82 102 47 l26 -21 -31 -43 c-17 -24 -28 -48 -24 -54 4 -6 40 1 96 19 94 30 140 36 140 18 0 -19 64 -89 82 -89 46 0 23 33 -79 113 -39 31 -75 61 -78 67 -4 6 -30 28 -58 49 -52 39 -199 180 -270 259 -35 39 -64 52 -80 35z m33 -2619 c11 -13 10 -16 -9 -21 -32 -8 -22 -35 16 -45 40 -10 46 -20 32 -52 -10 -20 -20 -26 -45 -26 l-32 0 -7 69 c-4 39 -4 75 0 80 9 16 31 13 45 -5z"/> <path d="M5534 2953 c-4 -16 -16 -48 -27 -73 -11 -25 -23 -58 -28 -75 -4 -16 -17 -57 -29 -90 -38 -106 -40 -115 -24 -115 9 0 14 10 14 29 0 16 7 34 15 41 8 7 15 19 15 27 0 8 7 31 16 51 9 21 22 52 30 70 8 18 14 48 14 66 0 19 7 39 15 46 17 14 20 50 5 50 -5 0 -13 -12 -16 -27z"/> <path d="M4266 2847 c-18 -13 -18 -15 5 -31 23 -16 24 -16 27 5 5 30 -10 42 -32 26z"/> <path d="M4332 2738 c3 -7 13 -15 22 -16 12 -3 17 1 14 10 -3 7 -13 15 -22 16 -12 3 -17 -1 -14 -10z"/> <path d="M2521 2661 c-1 -27 2 -32 11 -23 8 8 8 17 0 34 -10 22 -11 21 -11 -11z"/> <path d="M6010 2655 c0 -17 60 -36 74 -24 15 14 -14 39 -45 39 -19 0 -29 -5 -29 -15z"/> <path d="M4117 2623 c-2 -4 -3 -31 -2 -60 2 -37 -1 -53 -11 -57 -24 -9 -16 -35 21 -67 41 -36 43 -46 13 -59 -13 -5 -17 -9 -9 -9 11 -1 12 -14 7 -58 -5 -48 -2 -62 13 -80 11 -13 29 -23 40 -23 21 0 28 14 12 24 -12 8 -20 66 -10 72 5 2 17 -1 29 -8 17 -11 23 -9 47 14 l26 27 -19 27 c-44 62 -54 80 -54 101 0 20 -6 34 -50 123 -17 34 -43 50 -53 33z"/> <path d="M5397 2583 c-11 -10 -8 -43 3 -43 6 0 10 11 10 25 0 26 -2 29 -13 18z"/> <path d="M5960 2575 c-7 -9 -21 -13 -31 -10 -14 5 -19 1 -19 -13 0 -26 14 -31 78 -24 60 5 68 23 22 47 -36 18 -35 18 -50 0z"/> <path d="M6439 2569 c-18 -12 0 -25 56 -40 22 -5 54 -15 70 -21 92 -32 284 -60 271 -40 -3 6 -25 13 -49 17 -23 4 -47 11 -53 16 -6 5 -33 12 -60 15 -27 4 -76 15 -109 26 -100 34 -112 36 -126 27z"/> <path d="M3644 2532 c-14 -11 -29 -46 -43 -105 -25 -98 -35 -124 -71 -182 -29 -45 -50 -89 -76 -155 -49 -126 -32 -111 -229 -211 -191 -97 -283 -146 -301 -160 -6 -5 -32 -20 -58 -34 -88 -47 -226 -172 -226 -205 0 -26 18 -25 93 6 61 25 164 95 180 121 4 7 13 13 19 13 6 0 19 6 27 14 40 36 137 76 183 76 27 0 50 5 55 13 9 14 34 31 118 77 33 18 74 45 92 59 117 97 113 95 128 75 8 -11 15 -29 15 -41 0 -13 4 -42 10 -65 31 -143 47 -299 40 -415 -1 -10 4 -56 10 -103 6 -47 12 -131 14 -186 1 -67 6 -107 15 -118 8 -10 11 -28 6 -54 -4 -24 -1 -54 9 -83 8 -24 18 -96 21 -159 3 -63 10 -149 15 -190 5 -41 8 -81 5 -87 -2 -7 2 -31 10 -53 9 -25 12 -58 8 -90 -4 -33 -2 -55 7 -65 7 -8 13 -37 15 -64 1 -26 10 -62 20 -79 21 -36 14 -62 -17 -63 -13 0 -32 -4 -43 -9 -13 -6 14 -9 78 -9 92 -1 97 0 88 18 -6 10 -15 61 -21 112 -7 52 -16 119 -21 149 -6 30 -15 104 -20 163 -5 59 -13 116 -19 127 -5 10 -10 52 -10 93 0 41 -7 94 -15 118 -10 27 -19 109 -25 214 -30 555 -33 594 -66 825 -18 130 -21 520 -5 639 7 45 11 85 9 86 -2 2 -13 -4 -24 -13z"/> <path d="M5824 2522 c-18 -12 -36 -52 -30 -68 8 -22 50 -17 74 9 26 27 27 34 8 53 -16 15 -35 18 -52 6z"/> <path d="M5366 2513 c-3 -3 -6 -14 -6 -24 0 -10 -6 -22 -13 -26 -7 -4 -31 -37 -52 -73 -92 -156 -297 -447 -341 -485 -6 -5 -53 -59 -104 -120 -51 -60 -110 -127 -131 -147 -21 -20 -46 -52 -55 -70 -9 -18 -36 -55 -59 -83 -45 -53 -74 -106 -95 -169 -8 -24 -23 -44 -41 -55 -36 -20 -36 -29 -1 -36 15 -3 52 -12 82 -20 l55 -14 54 37 c86 58 161 134 161 162 0 14 13 38 30 54 27 27 72 110 155 291 47 101 83 173 125 250 18 33 43 78 55 100 12 22 44 81 72 130 27 50 64 122 82 160 18 39 37 78 42 87 16 31 5 71 -15 51z m-506 -882 c0 -14 -28 -33 -39 -27 -16 10 -1 36 20 36 10 0 19 -4 19 -9z m-30 -61 c0 -23 -26 -38 -41 -23 -7 7 -5 16 6 27 22 22 35 20 35 -4z m-40 -59 c0 -26 -77 -139 -100 -146 -44 -14 -53 19 -15 55 14 13 25 33 25 45 0 35 28 65 61 65 22 0 29 -5 29 -19z"/> <path d="M6095 2501 c-7 -12 29 -33 39 -24 3 3 6 12 6 20 0 15 -36 18 -45 4z"/> <path d="M5938 2454 c-11 -23 -10 -29 11 -45 22 -18 25 -18 42 -3 22 20 24 45 7 62 -20 20 -48 14 -60 -14z"/> <path d="M6370 2456 c0 -7 6 -19 14 -25 12 -10 17 -8 25 7 6 11 7 22 4 26 -12 11 -43 6 -43 -8z"/> <path d="M5725 2450 c-4 -6 -3 -16 3 -22 6 -6 12 -6 17 2 4 6 3 16 -3 22 -6 6 -12 6 -17 -2z"/> <path d="M6165 2415 c-16 -7 -23 -14 -15 -14 8 -1 25 -4 38 -7 18 -5 22 -2 22 15 0 24 -4 25 -45 6z"/> <path d="M7128 2395 c-14 -14 3 -25 36 -25 19 0 39 -7 46 -15 7 -8 23 -15 36 -15 12 0 35 -5 51 -11 15 -7 46 -15 68 -19 22 -4 54 -13 70 -18 118 -41 214 -56 440 -72 72 -5 161 -13 198 -20 37 -6 72 -8 78 -5 51 32 -97 77 -243 75 -75 -1 -111 3 -333 36 -107 17 -225 42 -315 69 -74 21 -123 28 -132 20z"/> <path d="M5733 2372 c-4 -9 6 -25 28 -43 38 -32 57 -35 84 -16 17 13 17 15 -5 37 -30 30 -99 44 -107 22z"/> <path d="M6395 2368 c3 -13 11 -42 16 -66 5 -24 15 -53 24 -65 8 -12 15 -38 15 -58 0 -20 7 -42 15 -49 8 -7 15 -24 15 -39 0 -14 7 -35 15 -46 10 -13 13 -30 9 -54 -5 -27 -3 -37 12 -48 11 -8 21 -33 25 -66 12 -87 28 -150 46 -184 14 -26 15 -34 4 -47 -8 -9 -17 -16 -22 -16 -5 0 -32 -16 -59 -35 -27 -19 -59 -35 -71 -35 -15 0 -20 -5 -17 -22 4 -29 33 -35 73 -15 16 9 47 23 68 31 30 12 37 20 37 42 0 26 0 26 67 22 39 -2 68 -9 71 -16 6 -19 22 -14 22 6 0 21 -56 82 -76 82 -8 0 -14 6 -14 14 0 7 -7 19 -15 26 -12 10 -13 16 -4 26 9 11 6 20 -15 39 -16 15 -26 35 -26 52 0 15 -9 42 -20 60 -36 60 -51 233 -20 233 13 0 13 -17 -1 -25 -6 -5 -4 -12 8 -21 25 -19 28 -18 42 12 11 24 8 29 -30 65 -23 21 -45 39 -50 39 -4 0 -13 16 -18 36 -5 19 -21 51 -35 69 -14 19 -26 39 -26 45 0 10 -40 30 -62 30 -6 0 -8 -9 -3 -22z"/> <path d="M6540 2381 c-32 -6 -33 -7 -15 -18 11 -6 39 -16 63 -22 34 -10 42 -16 42 -35 0 -15 9 -27 25 -34 14 -6 25 -17 25 -24 0 -8 9 -29 19 -49 18 -33 18 -38 4 -52 -10 -10 -13 -24 -9 -41 9 -35 36 -23 36 15 0 42 25 47 60 14 32 -30 70 -28 70 6 0 14 -7 19 -29 19 -21 0 -36 9 -55 34 -14 19 -26 41 -26 49 0 18 -18 34 -45 39 -29 5 -31 38 -4 59 30 22 20 32 -34 35 -23 1 -53 4 -67 7 -14 3 -41 2 -60 -2z"/> <path d="M6740 2360 c0 -5 5 -10 10 -10 6 0 23 -15 39 -32 24 -27 32 -31 42 -20 11 10 9 15 -8 27 -13 9 -20 22 -17 30 5 12 -2 15 -30 15 -20 0 -36 -4 -36 -10z"/> <path d="M6300 2344 c0 -17 44 -64 58 -63 11 0 12 3 5 6 -7 2 -13 10 -13 17 0 7 -8 20 -18 29 -19 17 -32 22 -32 11z"/> <path d="M6140 2318 c0 -7 18 -22 40 -32 25 -12 43 -28 46 -43 4 -13 12 -23 19 -23 17 0 27 68 14 92 -10 19 -12 19 -29 3 -17 -16 -21 -16 -42 -1 -27 19 -48 21 -48 4z"/> <path d="M7010 2290 c6 -11 13 -20 15 -20 2 0 9 9 15 20 9 18 8 20 -15 20 -23 0 -24 -2 -15 -20z"/> <path d="M5959 2288 c-3 -34 5 -56 33 -85 35 -36 32 -48 -17 -57 -25 -5 -35 -12 -35 -25 0 -14 6 -17 25 -13 20 3 25 0 25 -17 0 -11 3 -21 8 -21 13 1 48 35 61 62 12 23 12 29 -3 43 -13 13 -14 20 -5 31 6 8 17 14 25 14 20 0 26 17 14 40 -14 27 -24 25 -39 -7 l-13 -28 -33 38 c-34 39 -44 45 -46 25z"/> <path d="M6302 2233 c-9 -3 -2 -13 19 -29 49 -36 68 -27 32 16 -18 20 -27 23 -51 13z"/> <path d="M6130 2225 c0 -5 55 -35 65 -35 3 0 5 9 5 20 0 16 -7 20 -35 20 -19 0 -35 -2 -35 -5z"/> <path d="M5885 2201 c-3 -5 0 -13 5 -16 15 -9 60 3 60 15 0 13 -57 13 -65 1z"/> <path d="M6114 2156 c-3 -9 -13 -16 -21 -16 -12 0 -14 -9 -8 -49 6 -44 4 -51 -14 -61 -26 -13 -28 -40 -3 -40 10 0 36 9 57 21 25 13 51 18 71 15 36 -5 60 6 49 24 -5 8 -23 11 -52 7 -70 -8 -83 -1 -83 44 0 37 1 39 26 33 22 -6 25 -4 22 12 -4 24 -36 31 -44 10z"/> <path d="M6246 2153 c8 -10 24 -29 34 -43 l20 -25 17 22 c13 16 25 20 45 16 27 -5 41 -28 42 -68 1 -11 8 -20 16 -20 23 0 24 35 1 56 -12 11 -21 26 -21 33 0 19 -24 27 -59 20 -17 -4 -41 0 -59 10 -41 21 -56 20 -36 -1z"/> <path d="M7580 2140 c-8 -5 -26 -6 -39 -3 -17 4 -22 2 -19 -8 3 -8 15 -14 26 -13 13 0 24 -7 28 -18 7 -24 24 -23 24 2 0 13 9 22 28 26 44 10 49 12 20 13 -14 1 -32 3 -40 6 -7 3 -20 1 -28 -5z"/> <path d="M7874 2131 c22 -4 32 -14 37 -35 5 -17 7 -31 6 -32 -1 -1 -15 -6 -32 -12 -29 -10 -28 -10 18 -11 56 -1 66 13 43 57 -17 33 -35 43 -74 41 l-27 -1 29 -7z"/> <path d="M8128 2120 c-20 -23 -2 -47 37 -52 41 -4 38 -29 -6 -50 -57 -27 -61 -76 -10 -122 19 -17 21 -17 27 -2 4 10 -1 25 -11 36 -10 11 -15 26 -12 35 9 22 44 19 57 -6 7 -13 19 -19 33 -17 19 3 22 9 19 38 -2 21 -13 45 -28 60 -13 14 -40 41 -58 61 -31 34 -35 35 -48 19z"/> <path d="M4285 2120 c-8 -12 4 -79 16 -86 5 -3 9 -16 9 -28 0 -13 6 -29 14 -35 7 -6 16 -25 19 -41 7 -31 43 -58 58 -43 17 17 -17 81 -76 144 -8 9 -15 32 -15 52 0 36 -13 56 -25 37z"/> <path d="M7807 2123 c-13 -12 -7 -23 13 -23 11 0 20 7 20 15 0 15 -21 21 -33 8z"/> <path d="M8301 2111 c-7 -13 -17 -18 -27 -14 -25 9 -35 -17 -16 -43 23 -31 48 -30 64 3 18 37 32 38 45 3 9 -24 17 -30 41 -30 16 0 35 7 42 15 9 11 16 13 24 5 16 -16 23 -12 34 19 12 35 -3 47 -30 24 -14 -13 -17 -12 -23 6 -6 18 -13 21 -58 19 -29 -1 -60 1 -69 6 -12 5 -20 2 -27 -13z"/> <path d="M7681 2078 c-12 -35 -7 -48 18 -48 9 0 22 -5 29 -12 14 -14 18 -11 25 27 5 26 1 32 -28 47 l-33 17 -11 -31z"/> <path d="M8027 2066 c-15 -22 -14 -25 7 -45 30 -28 46 -27 46 5 0 28 -16 64 -29 64 -5 0 -16 -11 -24 -24z"/> <path d="M8659 2078 c0 -2 -2 -46 -3 -98 -1 -52 -8 -105 -14 -117 -7 -12 -12 -54 -12 -93 0 -43 -6 -82 -15 -100 -9 -17 -15 -60 -16 -107 -1 -50 -8 -87 -17 -103 -10 -16 -16 -51 -17 -95 0 -38 -3 -75 -7 -80 -3 -6 -9 -44 -13 -85 -4 -41 -13 -106 -21 -143 -8 -38 -14 -96 -14 -131 0 -34 -7 -86 -16 -115 -14 -48 -17 -52 -40 -47 -31 8 -31 -10 0 -35 l24 -19 -3 -295 c-1 -162 1 -298 6 -301 5 -3 9 -25 9 -49 0 -48 -19 -63 -65 -51 -13 3 -27 2 -30 -4 -4 -6 27 -10 86 -10 80 0 90 2 75 13 -14 10 -19 30 -21 80 -4 70 3 84 47 108 20 11 20 11 -3 35 -12 13 -28 24 -35 24 -18 0 -20 16 -19 150 0 104 4 130 19 153 16 24 17 31 6 52 -11 20 -11 27 0 40 12 14 10 57 -6 120 -3 12 3 30 16 45 12 14 18 31 14 42 -3 10 0 18 6 18 6 0 10 12 8 28 -2 17 -8 26 -17 24 -10 -2 -12 4 -7 25 3 15 9 44 12 63 3 19 12 61 21 93 12 44 21 57 35 57 18 0 18 1 4 16 -16 15 -22 75 -9 87 3 4 7 33 9 64 3 85 13 146 23 156 6 6 5 17 -2 28 -9 15 -8 21 8 33 19 14 19 16 3 59 -9 25 -14 55 -11 66 8 32 41 36 70 9 l26 -23 -7 34 c-3 19 -14 43 -22 53 -14 14 -14 20 -4 33 7 8 19 15 27 15 8 0 12 4 9 9 -7 10 -56 -9 -56 -21 0 -5 -7 -8 -15 -8 -32 0 -49 83 -19 94 11 4 14 14 9 35 -8 36 9 71 34 71 22 0 51 -30 51 -53 0 -12 8 -17 26 -17 19 0 28 7 35 29 6 16 19 31 30 34 15 4 20 12 17 28 -2 19 -15 27 -68 42 -36 11 -73 23 -82 28 -16 8 -57 13 -59 7z"/> <path d="M6746 2046 c-10 -42 11 -106 35 -106 5 0 7 28 6 62 -2 48 -6 64 -19 66 -10 2 -18 -6 -22 -22z"/> <path d="M7793 2028 c-8 -18 -4 -26 26 -53 50 -44 83 -65 101 -65 12 1 12 3 -2 11 -10 5 -18 22 -18 36 0 21 -4 24 -21 20 -14 -4 -22 1 -28 16 -5 12 -18 30 -28 40 -19 17 -20 16 -30 -5z"/> <path d="M6637 1992 c3 -32 1 -52 -6 -56 -14 -9 -15 -26 -1 -26 6 0 10 5 10 11 0 7 6 17 14 23 8 6 16 29 18 51 3 35 0 40 -19 43 -21 3 -22 1 -16 -46z"/> <path d="M5789 2001 c-8 -23 -17 -31 -34 -31 -21 0 -35 -17 -35 -41 0 -5 11 -9 25 -9 31 0 98 63 93 88 -6 31 -38 26 -49 -7z"/> <path d="M8585 2019 c-10 -15 3 -25 16 -12 7 7 7 13 1 17 -6 3 -14 1 -17 -5z"/> <path d="M6193 1997 c-43 -13 -49 -35 -19 -65 28 -28 56 -24 56 9 0 18 5 20 26 16 17 -3 28 0 31 10 11 29 -42 47 -94 30z"/> <path d="M5873 1978 c20 -47 35 -69 54 -79 26 -14 86 -5 103 16 10 12 5 17 -25 32 -31 15 -38 15 -45 3 -7 -11 -14 -12 -34 -2 -14 6 -26 18 -26 27 0 8 -7 15 -16 15 -9 0 -14 -5 -11 -12z"/> <path d="M7992 1968 c-5 -7 -13 -23 -17 -36 -4 -13 -16 -27 -28 -32 -22 -8 -22 -8 -2 -15 40 -13 50 -22 60 -53 15 -44 47 -75 111 -106 30 -15 58 -35 61 -44 3 -9 17 -27 31 -39 24 -20 25 -23 10 -40 -8 -10 -18 -31 -22 -47 -4 -17 -14 -35 -22 -41 -17 -12 -9 -45 11 -45 7 0 18 7 25 15 17 20 56 19 64 -1 3 -9 0 -29 -8 -45 -8 -16 -17 -42 -21 -59 -6 -26 -4 -30 14 -30 13 0 26 10 33 25 14 31 63 35 73 6 3 -10 17 -22 30 -25 20 -5 25 -13 25 -36 0 -32 -16 -48 -33 -31 -13 13 -57 15 -57 2 0 -5 9 -13 20 -16 25 -8 26 -43 3 -61 -16 -12 -16 -15 -3 -24 8 -5 23 -10 34 -10 15 0 16 2 6 15 -17 20 0 61 28 70 36 11 69 133 41 151 -6 3 -16 1 -22 -5 -18 -18 -71 -13 -82 7 -30 56 -79 118 -100 130 -14 7 -25 17 -25 22 0 13 57 13 65 0 3 -5 13 -10 21 -10 11 0 6 9 -14 29 -32 33 -62 89 -62 118 0 10 -13 27 -30 36 -16 10 -33 29 -36 43 -7 26 -14 30 -30 14 -15 -15 -99 -18 -99 -3 0 6 12 25 28 42 l27 31 -34 0 c-20 0 -36 6 -39 14 -7 19 1 26 30 26 32 0 29 10 -11 43 -40 31 -40 31 -54 15z"/> <path d="M8345 1960 c-3 -5 1 -10 9 -10 8 0 18 5 21 10 3 6 -1 10 -9 10 -8 0 -18 -4 -21 -10z"/> <path d="M6378 1949 c38 -11 40 -24 10 -50 -20 -16 -21 -20 -8 -29 32 -22 63 -24 77 -5 17 24 17 24 -7 63 -17 28 -25 32 -62 31 l-43 -1 33 -9z"/> <path d="M8864 1935 c-9 -14 -20 -40 -23 -58 -6 -26 -11 -31 -29 -29 -12 2 -22 -2 -22 -7 0 -6 6 -11 14 -11 8 0 21 -3 29 -6 18 -6 75 51 83 84 6 22 -10 52 -27 52 -5 0 -16 -11 -25 -25z"/> <path d="M8421 1911 c-9 -31 -15 -38 -30 -34 -14 3 -20 -2 -25 -22 -6 -23 -11 -26 -31 -21 -14 4 -25 2 -25 -4 0 -5 5 -10 10 -10 6 0 10 -7 10 -15 0 -26 -33 -16 -72 22 -32 31 -38 34 -44 19 -4 -11 2 -29 15 -47 13 -18 20 -37 16 -48 -7 -22 28 -35 54 -22 23 12 59 -5 73 -34 6 -14 16 -25 23 -25 6 0 21 -10 33 -23 23 -25 31 -100 12 -112 -5 -3 -10 -24 -10 -46 0 -21 5 -39 10 -39 6 0 10 3 11 8 5 53 9 74 19 115 11 46 13 48 41 42 23 -5 29 -3 29 11 0 27 -46 62 -87 66 -45 4 -54 28 -29 77 16 30 29 181 16 181 -4 0 -12 -18 -19 -39z"/> <path d="M5805 1900 c-7 -11 46 -40 75 -40 25 0 25 5 0 30 -21 21 -65 27 -75 10z"/> <path d="M8320 1901 c0 -10 30 -24 37 -17 3 3 2 9 -2 15 -8 13 -35 15 -35 2z"/> <path d="M6650 1865 c0 -8 2 -15 4 -15 2 0 11 -3 19 -6 10 -3 20 3 27 15 10 19 8 21 -20 21 -20 0 -30 -5 -30 -15z"/> <path d="M6760 1850 c6 -11 17 -20 25 -20 8 0 19 9 25 20 10 18 8 20 -25 20 -33 0 -35 -2 -25 -20z"/> <path d="M6233 1836 c-4 -8 -21 -16 -38 -18 -27 -3 -30 -6 -27 -33 5 -39 6 -40 42 -25 18 8 30 20 30 32 0 10 7 21 15 24 19 8 20 34 0 34 -7 0 -18 -6 -22 -14z"/> <path d="M5713 1793 c-13 -8 -23 -19 -23 -24 0 -15 40 -10 46 6 4 8 12 15 20 15 8 0 14 5 14 10 0 15 -32 11 -57 -7z"/> <path d="M6069 1790 c-11 -6 -14 -19 -11 -40 5 -34 10 -36 37 -17 13 10 16 21 11 40 -7 29 -12 31 -37 17z"/> <path d="M6313 1783 c-14 -5 -18 -43 -5 -43 12 0 32 23 32 37 0 13 -6 15 -27 6z"/> <path d="M8930 1748 c0 -7 4 -19 9 -27 11 -17 23 1 15 23 -7 19 -24 21 -24 4z"/> <path d="M8796 1734 c-3 -9 -6 -24 -6 -33 0 -10 -9 -26 -20 -36 -33 -30 -19 -83 15 -55 11 9 21 8 45 -3 29 -15 30 -15 30 9 0 20 -5 24 -30 24 -31 0 -34 7 -24 47 5 18 11 21 35 16 29 -6 34 1 23 31 -4 9 -18 16 -34 16 -16 0 -30 -7 -34 -16z"/> <path d="M6840 1695 c0 -25 5 -45 10 -45 6 0 10 20 10 45 0 25 -4 45 -10 45 -5 0 -10 -20 -10 -45z"/> <path d="M4140 1725 c0 -17 65 -196 81 -223 10 -18 19 -46 19 -61 0 -32 24 -58 60 -63 22 -3 25 1 28 29 4 36 -51 183 -100 271 -25 44 -34 52 -59 52 -16 0 -29 -2 -29 -5z"/> <path d="M5847 1724 c-8 -8 3 -34 14 -34 11 0 12 27 0 34 -4 3 -11 3 -14 0z"/> <path d="M6342 1718 c5 -15 28 -18 29 -3 0 6 -7 12 -17 13 -10 3 -15 -1 -12 -10z"/> <path d="M6462 1717 c-16 -19 11 -58 28 -41 14 14 10 46 -6 51 -6 2 -16 -2 -22 -10z"/> <path d="M6025 1709 c-4 -6 -5 -13 -2 -16 7 -7 27 6 27 18 0 12 -17 12 -25 -2z"/> <path d="M6216 1703 c-28 -15 -28 -16 -11 -29 31 -23 85 -15 85 12 0 11 -32 36 -42 33 -2 -1 -16 -8 -32 -16z"/> <path d="M5726 1692 c-5 -9 61 -62 77 -62 19 0 3 27 -26 45 -45 27 -44 27 -51 17z"/> <path d="M5950 1681 c0 -5 7 -14 15 -21 12 -10 19 -10 28 -1 9 9 9 14 -3 21 -19 12 -40 13 -40 1z"/> <path d="M8901 1673 c-8 -16 -7 -24 3 -32 17 -15 30 13 17 36 -7 14 -10 14 -20 -4z"/> <path d="M5835 1630 c-3 -6 2 -13 12 -17 10 -3 22 -12 26 -20 10 -16 37 -17 37 -2 0 6 -9 13 -19 16 -11 3 -22 11 -25 19 -6 16 -22 18 -31 4z"/> <path d="M6616 1584 c-7 -18 0 -34 15 -34 12 0 12 37 0 44 -5 3 -12 -1 -15 -10z"/> <path d="M8786 1567 c-9 -35 -7 -165 3 -172 14 -8 23 31 16 66 -5 24 -2 36 15 54 25 26 22 48 -8 64 -17 9 -21 7 -26 -12z"/> <path d="M5932 1568 c5 -15 37 -18 41 -3 1 6 -9 12 -22 13 -16 3 -22 -1 -19 -10z"/> <path d="M8530 1555 c-6 -14 -10 -35 -10 -47 0 -11 -8 -22 -20 -25 -25 -7 -28 -46 -3 -41 19 3 66 125 52 134 -5 3 -14 -7 -19 -21z"/> <path d="M6798 1559 c-25 -14 -22 -34 8 -64 21 -21 29 -24 35 -13 5 7 7 22 4 33 -2 11 -5 28 -5 38 0 19 -16 22 -42 6z"/> <path d="M6004 1539 c-9 -15 34 -48 63 -49 32 0 38 19 10 29 -14 6 -28 15 -32 20 -8 14 -32 14 -41 0z"/> <path d="M8927 1543 c-7 -10 8 -91 18 -101 4 -4 10 -1 13 7 2 7 13 22 23 32 22 22 24 29 7 29 -6 0 -22 9 -34 21 -12 11 -24 17 -27 12z"/> <path d="M6327 1533 c-5 -4 -36 -15 -70 -23 -46 -11 -65 -21 -72 -37 -5 -12 -16 -24 -25 -27 -8 -2 1 -4 21 -5 23 -1 47 7 69 24 19 14 44 25 57 25 23 0 38 19 31 40 -2 6 -7 8 -11 3z"/> <path d="M5697 1507 c-18 -15 -30 -64 -18 -72 5 -3 12 -1 16 5 10 17 25 11 25 -10 0 -11 4 -20 9 -20 13 0 8 99 -6 104 -6 3 -18 -1 -26 -7z"/> <path d="M8068 1445 c3 -18 11 -25 28 -25 32 0 31 24 -1 38 -34 16 -33 16 -27 -13z"/> <path d="M2550 1425 c-14 -17 -5 -36 14 -29 19 7 28 44 11 44 -7 0 -18 -7 -25 -15z"/> <path d="M8844 1416 c-3 -9 1 -27 10 -41 15 -23 15 -25 -4 -35 -14 -8 -26 -8 -40 0 -15 8 -24 6 -40 -10 -28 -28 -25 -41 14 -79 39 -38 56 -34 56 14 0 46 12 50 45 15 29 -30 51 -31 40 -2 -4 10 3 23 17 34 19 14 21 21 12 35 -6 10 -24 20 -40 23 -16 3 -33 15 -40 28 -16 33 -23 37 -30 18z"/> <path d="M5804 1404 c-14 -11 -15 -17 -6 -21 7 -2 19 -11 26 -19 32 -31 85 0 70 40 -8 21 -64 21 -90 0z"/> <path d="M8120 1405 c0 -3 6 -20 14 -38 15 -36 76 -79 76 -54 0 8 -9 17 -20 20 -11 3 -20 14 -20 25 0 10 -8 26 -18 35 -19 17 -32 22 -32 12z"/> <path d="M6085 1369 c-4 -6 -5 -13 -2 -16 7 -7 27 6 27 18 0 12 -17 12 -25 -2z"/> <path d="M2433 1343 c-21 -8 -15 -29 13 -42 22 -10 25 -16 20 -41 -5 -25 -2 -30 14 -30 21 0 28 28 11 46 -5 5 -11 22 -13 39 -3 29 -19 39 -45 28z"/> <path d="M5007 1343 c-4 -3 -7 -19 -7 -34 0 -31 -44 -89 -67 -89 -30 0 -80 -40 -97 -79 -22 -47 -52 -63 -161 -86 -44 -9 -93 -21 -110 -27 -16 -6 -51 -13 -77 -15 -38 -4 -49 -1 -54 11 -7 19 17 50 60 77 26 16 28 19 12 25 -32 12 -156 -12 -180 -35 -25 -24 -48 -26 -97 -9 -39 13 -51 26 -43 50 4 13 -2 19 -23 24 -34 9 -93 43 -93 55 0 4 -18 14 -41 20 -81 25 -199 -32 -199 -96 0 -18 -6 -50 -13 -71 -28 -79 -29 -92 -7 -114 32 -32 50 -26 50 18 0 65 13 70 56 22 22 -24 47 -51 57 -61 16 -14 17 -23 9 -53 -8 -29 -7 -42 9 -73 10 -21 33 -80 51 -133 17 -52 38 -102 45 -111 7 -8 13 -19 13 -23 0 -5 6 -22 14 -39 7 -18 24 -61 36 -97 13 -36 26 -69 30 -75 4 -5 10 -23 14 -40 4 -16 18 -52 32 -78 30 -60 34 -160 7 -189 -16 -17 -11 -18 128 -18 132 0 142 1 127 16 -13 14 -21 14 -52 4 -47 -15 -111 3 -101 29 6 14 24 128 25 157 0 7 -11 15 -24 18 -26 6 -46 49 -46 95 0 14 -18 62 -40 105 -22 43 -40 85 -40 93 0 13 -10 32 -56 103 -12 19 -25 54 -29 78 -4 23 -11 42 -16 42 -6 0 -18 17 -27 38 -10 20 -26 49 -36 65 -13 20 -17 38 -13 67 4 35 2 42 -28 64 -42 32 -61 97 -36 121 10 8 27 15 38 15 33 0 94 -52 107 -90 12 -39 36 -49 72 -29 21 11 27 10 47 -10 21 -19 31 -21 78 -15 41 4 72 0 129 -17 51 -16 100 -24 155 -24 71 0 89 4 153 34 46 22 85 49 105 72 39 47 122 82 151 65 15 -9 20 -7 30 8 51 83 146 164 146 124 0 -21 -91 -129 -116 -138 -13 -5 -32 -27 -44 -49 -11 -23 -32 -48 -46 -58 -20 -13 -25 -22 -21 -43 7 -34 0 -45 -59 -83 -33 -22 -49 -39 -49 -54 0 -12 -4 -25 -8 -29 -4 -4 -7 -17 -7 -29 0 -32 -34 -71 -80 -91 -43 -19 -46 -24 -28 -54 15 -24 17 -22 -62 -57 l-65 -29 30 -15 c25 -12 30 -20 27 -44 -1 -17 -2 -53 -3 -82 -1 -49 -3 -52 -35 -68 -27 -13 -32 -19 -25 -33 10 -19 8 -243 -3 -261 -5 -8 25 -11 110 -11 92 0 114 3 106 13 -17 20 -42 100 -42 135 0 19 -8 62 -17 97 -16 60 -16 66 2 122 24 77 71 170 101 203 27 28 30 33 87 140 20 39 37 79 37 88 0 9 18 37 40 61 22 24 42 53 46 64 4 12 26 53 49 93 24 40 46 81 49 91 7 21 66 64 78 57 11 -7 10 -52 -2 -59 -27 -17 -158 -338 -200 -490 -14 -52 -80 -238 -99 -280 -22 -48 -41 -106 -41 -125 0 -7 14 2 30 20 17 18 30 39 30 45 0 7 10 32 23 56 37 69 90 208 157 409 34 102 65 194 70 205 4 11 19 47 31 80 13 33 27 64 31 70 4 5 8 16 8 25 0 10 14 36 30 58 17 23 30 46 30 52 0 5 -20 15 -45 21 -25 6 -48 15 -51 20 -3 5 -14 9 -24 9 -11 0 -34 6 -52 14 -52 23 -136 56 -141 56 -2 0 -7 -3 -10 -7z m-317 -1299 c0 -18 -29 -25 -50 -14 -15 8 -17 15 -11 33 5 12 12 31 16 42 6 18 9 16 25 -15 11 -19 19 -40 20 -46z"/> <path d="M5640 1306 c0 -15 8 -30 19 -36 29 -15 31 -13 28 23 -2 24 -8 33 -25 35 -18 3 -22 -1 -22 -22z"/> <path d="M5777 1303 c-12 -11 -8 -23 8 -23 8 0 15 7 15 15 0 16 -12 20 -23 8z"/> <path d="M8072 1293 c5 -26 38 -29 38 -4 0 15 -6 21 -21 21 -14 0 -19 -5 -17 -17z"/> <path d="M8263 1288 c2 -7 10 -13 17 -13 7 0 15 6 18 13 2 7 -5 12 -18 12 -13 0 -20 -5 -17 -12z"/> <path d="M5902 1260 c-12 -10 -27 -20 -33 -22 -16 -5 15 -63 37 -72 24 -9 38 8 19 24 -22 18 -19 26 20 49 19 11 35 25 35 31 0 17 -54 11 -78 -10z"/> <path d="M8695 1270 c-8 -13 4 -32 16 -25 12 8 12 35 0 35 -6 0 -13 -4 -16 -10z"/> <path d="M2215 1249 c-4 -6 -5 -13 -2 -16 7 -7 27 6 27 18 0 12 -17 12 -25 -2z"/> <path d="M2136 1224 c-10 -26 -7 -44 8 -44 17 0 48 39 40 52 -9 14 -42 9 -48 -8z"/> <path d="M8960 1209 c-15 -27 -6 -49 20 -49 16 0 20 6 20 35 0 40 -22 48 -40 14z"/> <path d="M7876 1195 c-18 -28 -5 -43 18 -19 18 17 20 30 7 38 -5 3 -16 -5 -25 -19z"/> <path d="M8040 1210 c0 -5 14 -19 30 -32 18 -13 30 -31 30 -45 0 -13 5 -23 11 -23 18 0 -2 63 -28 88 -25 23 -43 28 -43 12z"/> <path d="M8751 1198 c-9 -25 -4 -49 13 -60 17 -12 24 -10 46 14 l20 22 -22 23 c-27 29 -46 29 -57 1z"/> <path d="M6312 1173 c19 -44 28 -49 28 -16 0 19 -6 33 -16 37 -24 9 -24 8 -12 -21z"/> <path d="M5417 1184 c-3 -4 -2 -16 4 -26 13 -24 35 -9 26 16 -7 17 -19 21 -30 10z"/> <path d="M8215 1177 c-4 -10 -5 -21 -1 -24 10 -10 18 4 13 24 -4 17 -4 17 -12 0z"/> <path d="M2044 1146 c-13 -26 -24 -35 -52 -40 -35 -5 -106 -46 -129 -75 -7 -8 -13 -25 -13 -38 0 -36 37 -29 79 16 20 21 50 46 66 54 17 8 39 24 49 36 11 12 24 21 31 21 18 0 48 37 40 49 -3 6 -17 11 -31 11 -18 0 -29 -9 -40 -34z"/> <path d="M5743 1135 c-27 -26 -30 -50 -7 -59 11 -4 18 1 21 14 7 25 36 23 41 -3 2 -12 -3 -17 -17 -17 -12 0 -21 -6 -21 -14 0 -8 -16 -24 -35 -36 -24 -15 -35 -29 -35 -46 0 -37 29 -30 46 11 8 20 22 38 32 41 53 17 62 27 62 69 0 66 -42 86 -87 40z"/> <path d="M7692 1148 c3 -7 15 -15 27 -16 16 -3 22 1 19 10 -3 7 -15 15 -27 16 -16 3 -22 -1 -19 -10z"/> <path d="M8330 1121 c0 -12 5 -21 10 -21 6 0 10 6 10 14 0 8 -4 18 -10 21 -5 3 -10 -3 -10 -14z"/> <path d="M7957 1113 c-13 -12 -7 -33 8 -33 8 0 15 9 15 20 0 20 -11 26 -23 13z"/> <path d="M6630 1091 c0 -12 6 -21 16 -21 9 0 14 7 12 17 -5 25 -28 28 -28 4z"/> <path d="M7736 1102 c-3 -3 -6 -16 -6 -30 0 -21 3 -23 25 -18 21 5 27 2 35 -19 6 -15 14 -23 20 -20 12 7 13 45 2 63 -10 14 -68 33 -76 24z"/> <path d="M6195 1080 c-25 -27 -10 -39 16 -13 12 11 17 23 11 27 -5 3 -17 -3 -27 -14z"/> <path d="M8016 1072 l-29 -15 24 -18 c35 -27 49 -24 49 10 0 37 -8 41 -44 23z"/> <path d="M8360 1075 c-7 -9 -11 -18 -8 -20 7 -8 38 5 38 15 0 17 -18 19 -30 5z"/> <path d="M8820 1065 c0 -14 42 -55 57 -55 6 0 13 -7 17 -15 7 -20 36 -19 36 0 0 9 -11 21 -25 27 -13 6 -27 19 -30 28 -6 20 -55 34 -55 15z"/> <path d="M6397 1033 c-17 -23 -23 -39 -16 -42 16 -5 73 55 65 68 -12 18 -21 13 -49 -26z"/> <path d="M7668 1063 c-27 -7 -21 -23 7 -23 14 0 25 4 25 9 0 13 -12 18 -32 14z"/> <path d="M7427 1042 c-13 -14 -14 -21 -5 -30 18 -18 25 -15 37 18 12 35 -5 42 -32 12z"/> <path d="M8148 1048 c9 -9 15 -9 24 0 9 9 7 12 -12 12 -19 0 -21 -3 -12 -12z"/> <path d="M2076 1031 c-3 -5 0 -11 8 -14 15 -6 26 1 26 15 0 11 -27 10 -34 -1z"/> <path d="M6027 1032 c-37 -5 -30 -24 11 -28 23 -3 32 0 32 10 0 19 -9 23 -43 18z"/> <path d="M8970 1020 c0 -11 7 -20 15 -20 8 0 15 9 15 20 0 11 -7 20 -15 20 -8 0 -15 -9 -15 -20z"/> <path d="M5889 1009 c26 -22 35 -20 25 5 -3 9 -16 16 -28 16 -21 -1 -21 -1 3 -21z"/> <path d="M7920 1011 c0 -39 31 -101 51 -101 39 0 13 86 -32 111 -16 8 -19 6 -19 -10z"/> <path d="M8277 1015 c-4 -8 -13 -15 -22 -15 -24 0 -17 -19 10 -26 36 -9 57 2 53 28 -4 27 -33 36 -41 13z"/> <path d="M8752 1002 c-9 -28 -9 -38 5 -58 12 -19 18 -22 24 -12 12 18 10 38 -5 73 l-12 30 -12 -33z"/> <path d="M7652 990 c-12 -10 -28 -20 -35 -23 -21 -7 12 -37 42 -37 19 0 32 9 44 30 29 49 -4 69 -51 30z"/> <path d="M5810 971 c0 -19 6 -34 15 -38 22 -8 25 -1 17 32 -11 41 -32 44 -32 6z"/> <path d="M1765 974 c-11 -9 -56 -36 -99 -62 -87 -52 -221 -171 -232 -205 -3 -12 -12 -35 -19 -52 -40 -91 -45 -124 -45 -319 0 -106 5 -218 11 -250 8 -43 7 -61 -2 -72 -10 -12 -2 -14 52 -14 62 1 63 1 37 16 l-28 15 -2 162 c-5 326 4 427 41 427 17 0 22 -51 6 -73 -21 -31 -19 -43 5 -22 11 10 20 27 20 37 0 10 9 36 20 58 11 22 20 48 20 59 0 12 48 70 121 145 85 89 120 131 117 145 -3 18 -5 18 -23 5z m-245 -278 c0 -22 -29 -41 -42 -28 -9 9 -7 17 7 32 18 20 35 18 35 -4z"/> <path d="M5995 980 c-4 -6 -3 -16 3 -22 6 -6 12 -6 17 2 4 6 3 16 -3 22 -6 6 -12 6 -17 -2z"/> <path d="M6144 975 c-4 -10 -14 -13 -33 -8 -26 6 -26 6 -7 -16 26 -29 43 -26 48 9 5 32 1 39 -8 15z"/> <path d="M8830 962 c0 -5 -9 -18 -20 -30 -23 -25 -18 -41 23 -80 l25 -24 18 31 c10 17 24 32 31 32 27 3 32 4 39 12 5 4 2 12 -5 17 -18 10 -60 -5 -77 -28 -12 -16 -13 -16 -20 2 -5 12 -3 21 4 24 18 6 15 52 -3 52 -8 0 -15 -4 -15 -8z"/> <path d="M6026 899 c3 -52 20 -71 38 -46 7 9 18 17 24 17 27 0 19 22 -17 45 -23 14 -42 25 -44 25 -2 0 -3 -19 -1 -41z"/> <path d="M6606 909 c-15 -75 -2 -199 20 -199 16 0 17 28 3 89 -5 24 -7 51 -3 60 4 9 8 31 9 49 2 42 -20 43 -29 1z"/> <path d="M7370 916 c0 -32 18 -43 38 -23 13 13 13 19 2 31 -19 24 -40 19 -40 -8z"/> <path d="M7790 915 c0 -15 6 -25 14 -25 19 0 28 14 20 34 -10 25 -34 19 -34 -9z"/> <path d="M7851 916 c-17 -20 -10 -29 19 -24 19 3 19 5 8 21 -13 17 -15 17 -27 3z"/> <path d="M8097 923 c-4 -3 -7 -15 -7 -26 0 -16 -5 -18 -26 -13 -31 8 -74 -25 -74 -57 0 -20 19 -20 76 -2 15 5 23 2 28 -12 4 -10 16 -34 27 -53 l20 -35 -3 45 c-2 36 -8 47 -25 55 -28 12 -30 41 -3 50 11 3 20 12 20 19 0 17 -25 38 -33 29z"/> <path d="M8142 884 c2 -11 11 -20 22 -22 13 -3 17 1 14 14 -2 11 -11 20 -22 22 -13 3 -17 -1 -14 -14z"/> <path d="M6180 875 c0 -8 5 -15 10 -15 6 0 10 7 10 15 0 8 -4 15 -10 15 -5 0 -10 -7 -10 -15z"/> <path d="M6426 881 c-7 -10 22 -37 30 -28 9 8 -3 37 -15 37 -5 0 -12 -4 -15 -9z"/> <path d="M7890 873 c0 -5 5 -15 10 -23 7 -11 12 -12 21 -3 6 6 8 16 5 22 -8 12 -36 15 -36 4z"/> <path d="M7757 863 c-12 -12 -7 -31 10 -37 20 -8 36 14 21 31 -12 14 -21 16 -31 6z"/> <path d="M5864 846 c-9 -23 0 -51 16 -51 10 0 15 10 15 29 0 32 -21 47 -31 22z"/> <path d="M6208 854 c-3 -3 -4 -14 -1 -25 4 -14 14 -19 39 -19 42 0 43 10 5 33 -32 19 -35 20 -43 11z"/> <path d="M8452 839 c1 -12 9 -24 16 -27 9 -3 13 3 10 19 -1 12 -9 24 -16 27 -9 3 -13 -3 -10 -19z"/> <path d="M6127 843 c-4 -3 -7 -19 -7 -35 0 -16 -6 -39 -14 -51 -7 -12 -16 -39 -19 -60 -5 -35 -4 -38 15 -35 12 2 30 15 42 31 18 24 19 31 8 59 -8 21 -8 36 -2 42 15 15 12 56 -3 56 -8 0 -17 -3 -20 -7z"/> <path d="M5787 827 c-3 -8 -1 -20 4 -28 6 -10 9 -7 9 14 0 29 -5 35 -13 14z"/> <path d="M8905 831 c-6 -11 35 -42 47 -35 14 9 9 31 -8 38 -22 8 -32 8 -39 -3z"/> <path d="M7647 823 c-11 -11 -8 -21 9 -27 19 -7 47 12 38 25 -6 11 -38 12 -47 2z"/> <path d="M8195 819 c-4 -6 -5 -12 -4 -13 8 -7 69 7 69 15 0 13 -57 11 -65 -2z"/> <path d="M5707 813 c-9 -14 25 -83 39 -83 25 0 27 28 4 60 -21 30 -35 37 -43 23z"/> <path d="M5940 810 c0 -6 11 -16 25 -22 15 -7 25 -19 25 -33 0 -29 -41 -67 -59 -55 -8 4 -20 6 -28 3 -19 -7 -43 15 -43 40 0 15 -3 18 -11 10 -17 -17 -7 -66 16 -73 32 -8 72 -39 78 -59 2 -10 17 -21 33 -24 36 -7 42 -2 26 24 -13 20 -15 19 38 36 12 4 10 8 -8 23 -12 10 -17 20 -11 22 5 2 13 22 16 45 5 38 3 43 -18 51 -48 18 -79 22 -79 12z"/> <path d="M7263 792 c4 -38 15 -52 38 -52 24 0 24 6 -3 47 -28 40 -39 42 -35 5z"/> <path d="M7410 813 c0 -5 9 -19 20 -33 l20 -25 0 26 c0 15 -7 29 -16 33 -20 8 -24 8 -24 -1z"/> <path d="M7880 788 c1 -28 35 -72 50 -63 15 9 12 23 -12 55 -26 36 -38 38 -38 8z"/> <path d="M7794 785 c3 -9 6 -19 6 -21 0 -2 12 -4 26 -4 37 0 28 34 -10 38 -23 3 -28 0 -22 -13z"/> <path d="M8820 792 c0 -5 -9 -19 -20 -32 -26 -30 -21 -44 18 -48 40 -4 49 15 27 57 -15 31 -25 39 -25 23z"/> <path d="M7523 764 c-7 -18 11 -39 26 -30 17 11 13 46 -4 46 -9 0 -18 -7 -22 -16z"/> <path d="M7576 761 c-9 -14 5 -42 18 -38 15 5 14 39 -1 44 -6 2 -14 0 -17 -6z"/> <path d="M7123 737 c-23 -10 -37 -33 -25 -41 10 -6 55 32 50 42 -2 5 -13 5 -25 -1z"/> <path d="M7790 735 c-10 -12 -10 -19 -2 -27 15 -15 48 14 38 31 -10 15 -21 14 -36 -4z"/> <path d="M7850 717 c0 -18 -5 -38 -12 -45 -9 -9 -7 -12 9 -12 15 0 22 8 27 31 9 47 7 59 -9 59 -10 0 -15 -10 -15 -33z"/> <path d="M6247 725 c-17 -17 -13 -45 7 -45 21 0 38 17 34 35 -4 25 -22 29 -41 10z"/> <path d="M8000 723 c0 -10 9 -33 20 -51 15 -25 19 -42 14 -72 -5 -31 -3 -40 7 -40 25 1 49 27 49 53 0 14 8 39 17 56 10 16 14 33 10 38 -5 4 -13 0 -18 -10 -14 -25 -34 -21 -62 13 -29 34 -37 37 -37 13z"/> <path d="M8302 725 c1 -9 6 -16 11 -16 4 1 21 1 39 1 39 0 27 15 -20 25 -28 6 -33 4 -30 -10z"/> <path d="M7195 710 c-4 -6 -2 -17 4 -23 15 -15 25 -2 13 19 -7 12 -11 13 -17 4z"/> <path d="M7447 691 c-16 -17 -23 -32 -17 -36 5 -3 10 -15 10 -26 0 -33 27 -21 44 21 14 36 13 70 -3 70 -3 0 -19 -13 -34 -29z"/> <path d="M8152 682 c-4 -61 54 -117 96 -92 15 8 14 9 -4 10 -33 0 -74 44 -74 79 0 43 -15 46 -18 3z"/> <path d="M6453 704 c-15 -6 -18 -44 -4 -44 6 0 13 5 16 10 3 6 15 10 26 10 12 0 19 5 17 13 -5 13 -35 19 -55 11z"/> <path d="M8370 671 c0 -12 5 -21 10 -21 6 0 10 6 10 14 0 8 -4 18 -10 21 -5 3 -10 -3 -10 -14z"/> <path d="M5662 663 c4 -24 50 -48 74 -39 18 7 17 9 -9 32 -33 28 -70 33 -65 7z"/> <path d="M6313 654 c-8 -20 13 -42 27 -28 12 12 3 44 -11 44 -5 0 -12 -7 -16 -16z"/> <path d="M7608 638 c-9 -18 -20 -47 -23 -65 -6 -29 -4 -33 21 -39 21 -6 31 -2 46 16 25 31 24 96 -1 110 -26 13 -24 14 -43 -22z"/> <path d="M8960 660 c-8 -5 -24 -11 -34 -15 -26 -8 -10 -22 37 -30 36 -7 37 -7 37 24 0 32 -11 38 -40 21z"/> <path d="M7520 645 c0 -8 5 -15 10 -15 6 0 10 7 10 15 0 8 -4 15 -10 15 -5 0 -10 -7 -10 -15z"/> <path d="M8280 630 c0 -5 7 -10 15 -10 8 0 15 5 15 10 0 6 -7 10 -15 10 -8 0 -15 -4 -15 -10z"/> <path d="M5780 610 c0 -5 7 -10 15 -10 8 0 15 5 15 10 0 6 -7 10 -15 10 -8 0 -15 -4 -15 -10z"/> <path d="M6172 608 c7 -20 48 -23 48 -4 0 11 -9 16 -26 16 -16 0 -24 -5 -22 -12z"/> <path d="M8784 606 c-4 -11 -13 -15 -25 -11 -11 4 -19 3 -19 -2 1 -20 29 -88 38 -91 18 -6 24 19 12 49 -10 23 -10 32 0 44 7 9 10 18 7 22 -4 3 -9 -2 -13 -11z"/> <path d="M6092 594 c-27 -19 -28 -34 -3 -34 10 0 26 11 35 25 19 30 4 34 -32 9z"/> <path d="M7736 594 c-3 -8 3 -36 15 -61 19 -41 22 -44 36 -30 17 17 10 37 -13 37 -9 0 -14 11 -14 35 0 36 -13 47 -24 19z"/> <path d="M6576 589 c-10 -32 -15 -145 -7 -158 8 -12 11 -8 15 15 4 16 11 48 16 72 8 34 7 48 -5 64 -11 16 -15 18 -19 7z"/> <path d="M7890 588 c0 -6 7 -19 16 -29 14 -16 15 -21 1 -48 -15 -31 -15 -31 13 -31 19 0 33 8 44 25 23 35 34 31 38 -12 4 -52 23 -43 23 10 0 38 -2 42 -27 45 -16 2 -30 11 -33 22 -8 26 -75 42 -75 18z"/> <path d="M7015 568 c-8 -20 24 -90 43 -96 22 -7 14 55 -12 85 -21 24 -25 26 -31 11z"/> <path d="M8114 566 c-5 -12 3 -27 24 -49 28 -28 34 -29 57 -19 27 13 26 32 -3 32 -9 0 -28 12 -44 27 -25 23 -28 24 -34 9z"/> <path d="M8640 560 c0 -11 5 -20 10 -20 6 0 10 9 10 20 0 11 -4 20 -10 20 -5 0 -10 -9 -10 -20z"/> <path d="M8926 555 c9 -14 23 -25 30 -25 8 0 14 -4 14 -10 0 -5 7 -10 15 -10 22 0 19 40 -2 40 -10 0 -27 7 -37 15 -30 23 -38 18 -20 -10z"/> <path d="M7824 557 c-8 -21 2 -35 16 -21 5 5 6 15 0 24 -8 12 -10 12 -16 -3z"/> <path d="M7470 532 c0 -21 56 -66 70 -57 6 3 10 22 10 41 0 33 -1 34 -40 34 -32 0 -40 -4 -40 -18z"/> <path d="M5786 514 c-9 -8 -16 -19 -16 -24 0 -5 -9 -12 -20 -15 -11 -3 -20 -12 -20 -19 0 -16 72 -64 88 -58 17 5 15 23 -5 38 -17 12 -17 14 0 44 9 18 17 36 17 41 0 14 -27 10 -44 -7z"/> <path d="M6000 507 c0 -28 29 -57 56 -57 17 0 19 5 16 35 -3 29 -8 35 -22 30 -10 -3 -21 -1 -25 5 -11 18 -25 11 -25 -13z"/> <path d="M6920 510 c0 -5 -11 -10 -25 -10 -14 0 -25 -4 -25 -10 0 -5 16 -10 35 -10 28 0 35 4 35 20 0 11 -4 20 -10 20 -5 0 -10 -4 -10 -10z"/> <path d="M6294 489 c-18 -20 -18 -21 1 -35 23 -17 27 -17 48 -1 16 11 16 14 2 35 -20 27 -27 28 -51 1z"/> <path d="M7161 503 c-14 -6 -60 -54 -61 -63 0 -3 4 -11 9 -19 14 -21 68 4 87 41 21 40 7 57 -35 41z"/> <path d="M7317 483 c-11 -10 -8 -41 4 -49 6 -3 16 -1 22 5 6 6 20 11 32 11 19 0 18 2 -5 20 -26 21 -42 24 -53 13z"/> <path d="M8333 455 c1 -21 -5 -40 -15 -47 -20 -17 -31 -74 -18 -98 8 -14 20 -18 48 -16 33 2 37 5 34 27 -2 13 -3 43 -3 65 1 26 -5 46 -14 54 -8 7 -15 18 -15 26 0 7 -4 15 -9 18 -5 3 -9 -10 -8 -29z"/> <path d="M2217 463 c-12 -11 -8 -23 8 -23 8 0 15 7 15 15 0 16 -12 20 -23 8z"/> <path d="M7837 449 c-31 -18 -39 -46 -21 -73 11 -17 14 -35 9 -56 -5 -25 -4 -29 9 -24 9 3 16 13 16 20 0 8 11 20 25 26 34 15 42 50 18 82 -22 31 -35 37 -56 25z"/> <path d="M8183 444 c-6 -16 11 -34 35 -34 19 0 14 24 -8 38 -17 10 -21 10 -27 -4z"/> <path d="M8660 446 c0 -8 3 -22 6 -31 9 -23 23 0 17 26 -6 22 -23 26 -23 5z"/> <path d="M8902 439 c-10 -16 -17 -18 -25 -10 -19 19 -37 12 -37 -14 0 -25 23 -35 34 -16 3 5 15 7 26 4 14 -4 20 0 20 10 0 8 3 22 6 31 9 23 -9 19 -24 -5z"/> <path d="M6980 411 c0 -22 25 -45 40 -36 6 4 4 15 -7 30 -22 29 -33 31 -33 6z"/> <path d="M7611 409 c-17 -16 -21 -30 -19 -62 3 -36 7 -43 27 -45 43 -6 67 59 41 109 -13 24 -21 24 -49 -2z"/> <path d="M6401 410 c-7 -4 -12 -13 -10 -19 3 -8 10 -8 23 2 21 15 9 31 -13 17z"/> <path d="M5941 397 c-12 -12 -15 -65 -5 -92 6 -14 12 -10 40 19 37 39 40 49 22 63 -23 18 -45 22 -57 10z"/> <path d="M7434 375 c8 -42 39 -74 72 -75 18 0 22 6 22 39 1 46 -12 60 -64 68 l-37 6 7 -38z"/> <path d="M6335 350 c-15 -16 -41 -32 -57 -35 -22 -5 -27 -10 -18 -20 6 -7 8 -25 4 -40 -5 -21 -4 -27 7 -23 8 3 15 14 17 26 2 12 23 38 48 59 24 21 44 44 44 50 0 21 -14 15 -45 -17z"/> <path d="M6116 355 c-9 -24 -8 -25 15 -25 14 0 19 5 17 17 -4 23 -24 27 -32 8z"/> <path d="M6840 351 c0 -35 30 -35 59 2 12 15 10 17 -23 17 -29 0 -36 -4 -36 -19z"/> <path d="M8790 357 c0 -8 7 -20 15 -27 8 -7 15 -26 15 -42 0 -16 -6 -31 -15 -34 -8 -4 -15 -16 -15 -28 1 -21 1 -21 16 -1 8 11 28 34 44 52 30 31 30 32 8 35 -14 2 -24 12 -28 28 -6 27 -40 41 -40 17z"/> <path d="M7098 343 c-19 -21 -24 -53 -9 -53 16 0 33 29 29 51 -3 21 -3 21 -20 2z"/> <path d="M7215 350 c-11 -18 5 -30 41 -30 40 0 45 16 8 30 -32 13 -41 13 -49 0z"/> <path d="M6175 340 c-8 -14 13 -22 31 -12 14 8 14 10 -5 15 -11 3 -23 1 -26 -3z"/> <path d="M8090 311 c-12 -23 -2 -49 29 -83 16 -17 17 -15 16 40 0 44 -4 58 -17 60 -9 2 -22 -6 -28 -17z"/> <path d="M8924 319 c-7 -12 44 -69 63 -69 8 0 13 11 13 28 0 20 -7 30 -27 40 -33 15 -40 15 -49 1z"/> <path d="M8656 302 c-15 -17 -15 -21 0 -51 17 -33 31 -36 47 -9 7 11 6 25 -3 47 -14 36 -21 38 -44 13z"/> <path d="M6044 285 c-26 -26 -29 -55 -7 -62 18 -6 63 42 63 67 0 28 -25 25 -56 -5z"/> <path d="M6944 287 c-12 -12 -19 -28 -17 -34 7 -19 23 -16 23 3 0 12 6 15 25 10 29 -7 32 4 7 27 -16 14 -19 14 -38 -6z"/> <path d="M7130 280 c0 -13 5 -20 13 -17 6 2 12 10 12 17 0 7 -6 15 -12 18 -8 2 -13 -5 -13 -18z"/> <path d="M4468 280 c-13 -8 -16 -28 -17 -114 -1 -58 3 -107 8 -111 18 -10 34 38 41 120 4 44 11 88 15 98 5 13 2 17 -11 17 -11 0 -26 -5 -36 -10z"/> <path d="M7698 278 c-26 -22 -29 -47 -8 -68 11 -11 26 -20 33 -20 28 1 95 78 80 93 -11 12 -88 8 -105 -5z"/> <path d="M5810 263 c-16 -6 -30 -23 -30 -35 0 -12 59 -9 81 3 16 8 18 13 8 25 -12 14 -32 17 -59 7z"/> <path d="M7407 253 c-4 -3 -7 -17 -7 -30 0 -12 -4 -23 -10 -23 -5 0 -10 -7 -10 -15 0 -8 9 -15 19 -15 11 0 23 -4 26 -10 10 -17 29 -11 64 18 l34 28 -26 28 c-22 23 -30 26 -41 17 -10 -8 -16 -9 -21 -1 -7 12 -19 13 -28 3z"/> <path d="M7933 247 c-4 -8 -16 -16 -25 -20 -12 -4 -18 -17 -18 -39 0 -32 2 -33 40 -34 27 -1 40 3 40 12 0 7 12 14 28 16 34 4 39 41 5 46 -12 2 -27 10 -33 18 -15 18 -27 18 -37 1z"/> <path d="M8294 252 c-15 -10 -24 -65 -14 -82 8 -13 12 -12 24 5 12 17 16 17 31 5 15 -13 16 -11 9 26 -3 21 -9 42 -11 47 -5 9 -25 9 -39 -1z"/> <path d="M6436 235 c-3 -8 -15 -15 -26 -15 -14 0 -20 -7 -20 -23 0 -29 18 -47 47 -47 21 0 23 4 23 50 0 48 -12 66 -24 35z"/> <path d="M7576 234 c-8 -20 1 -34 21 -34 10 0 13 6 9 16 -3 9 -6 20 -6 25 0 15 -17 10 -24 -7z"/> <path d="M6801 184 c-11 -13 -11 -20 -1 -40 17 -31 30 -31 30 0 0 19 6 25 28 28 39 4 34 23 -8 25 -22 2 -40 -3 -49 -13z"/> <path d="M7151 174 c-11 -14 -21 -30 -23 -36 -3 -8 -15 -7 -43 1 -98 31 -96 30 -102 15 -9 -25 10 -34 88 -44 74 -8 74 -8 102 21 29 31 36 69 13 69 -8 0 -24 -11 -35 -26z"/> <path d="M6117 183 c-13 -13 -7 -38 13 -50 16 -11 23 -9 46 12 14 13 23 29 19 34 -7 12 -68 15 -78 4z"/> <path d="M7628 143 c3 -26 9 -50 14 -51 4 -2 15 -10 22 -18 8 -8 21 -14 28 -14 8 1 7 5 -5 14 -11 9 -21 34 -25 62 -5 33 -12 50 -23 52 -14 3 -16 -4 -11 -45z"/> <path d="M8869 164 c-5 -15 -12 -30 -14 -35 -3 -4 3 -5 14 -2 10 3 22 0 25 -6 13 -20 64 -13 71 10 17 52 -76 84 -96 33z"/> <path d="M8727 164 c-9 -10 63 -55 75 -48 6 4 -2 16 -18 30 -30 24 -46 29 -57 18z"/> <path d="M5755 150 c-7 -12 2 -30 16 -30 5 0 9 9 9 20 0 21 -15 27 -25 10z"/> <path d="M5910 149 c-40 -16 -56 -59 -22 -59 20 0 62 39 62 58 0 14 -6 14 -40 1z"/> <path d="M8635 150 c-9 -14 26 -90 41 -90 5 0 18 6 28 13 22 16 14 57 -11 57 -9 0 -24 7 -34 16 -12 11 -19 12 -24 4z"/> <path d="M7777 135 c-11 -10 -13 -23 -8 -42 4 -16 10 -27 14 -25 4 1 18 2 32 2 22 0 25 4 25 34 0 45 -34 61 -63 31z"/> <path d="M5670 78 c0 -25 3 -29 10 -18 13 20 13 50 0 50 -5 0 -10 -15 -10 -32z"/> <path d="M8328 86 c-23 -17 -23 -26 2 -26 13 0 20 7 20 20 0 23 0 23 -22 6z"/> <path d="M7510 60 c0 -18 -8 -35 -22 -44 -21 -15 -20 -16 35 -16 31 0 57 2 57 4 0 21 -34 75 -50 79 -17 4 -20 0 -20 -23z"/> <path d="M8157 74 c-8 -8 1 -24 14 -24 5 0 9 7 9 15 0 15 -12 20 -23 9z"/> <path d="M7727 26 c-4 -10 -25 -16 -59 -19 -35 -2 -22 -4 37 -5 l90 -2 -25 20 c-30 24 -36 24 -43 6z"/> <path d="M0 16 c0 -14 34 -16 358 -14 l357 2 -275 7 c-151 4 -305 5 -342 2 -47 -4 -73 -2 -83 7 -12 10 -15 10 -15 -4z"/> <path d="M5981 18 c-12 -4 -21 -10 -21 -13 0 -3 64 -5 141 -5 121 0 140 2 130 14 -10 11 -19 12 -42 4 -19 -6 -57 -7 -108 -1 -44 5 -89 5 -100 1z"/> <path d="M6324 15 c-17 -13 -14 -14 36 -15 54 0 59 12 9 23 -16 4 -33 1 -45 -8z"/> <path d="M930 10 c-169 -5 -160 -6 110 -7 178 0 279 3 255 8 -42 8 -65 8 -365 -1z"/> <path d="M1870 10 c-12 -8 -9 -10 13 -10 16 0 26 4 22 10 -8 12 -16 12 -35 0z"/> <path d="M2195 9 c-12 -4 18 -8 79 -8 55 -1 97 1 95 3 -9 8 -156 13 -174 5z"/> <path d="M3925 9 c-16 -4 38 -7 120 -7 107 -1 143 2 126 9 -27 11 -197 9 -246 -2z"/> <path d="M4845 10 c-16 -4 123 -8 310 -8 198 0 332 3 320 8 -25 11 -588 11 -630 0z"/> <path d="M5665 9 c-4 -5 44 -9 116 -9 67 0 120 3 117 6 -10 10 -227 13 -233 3z"/> <path d="M6505 10 c-14 -6 0 -9 49 -9 38 -1 67 2 63 5 -10 10 -91 13 -112 4z"/> <path d="M6830 10 c-30 -6 -27 -8 25 -9 42 0 56 2 45 9 -17 11 -19 11 -70 0z"/> <path d="M7030 9 c-82 -3 -39 -6 149 -7 145 -1 261 1 257 5 -9 9 -241 10 -406 2z"/> <path d="M7834 9 c-10 -4 64 -8 165 -8 101 -1 181 2 178 5 -9 9 -320 12 -343 3z"/> <path d="M8260 10 c-11 -7 1 -9 40 -9 42 1 49 3 30 9 -35 11 -53 11 -70 0z"/> <path d="M8770 10 c-62 -5 -49 -7 79 -8 85 -1 152 0 150 2 -9 8 -159 13 -229 6z"/> <path d="M1528 3 c12 -2 30 -2 40 0 9 3 -1 5 -23 4 -22 0 -30 -2 -17 -4z"/> <path d="M2783 3 c15 -2 39 -2 55 0 15 2 2 4 -28 4 -30 0 -43 -2 -27 -4z"/> <path d="M2943 3 c9 -2 25 -2 35 0 9 3 1 5 -18 5 -19 0 -27 -2 -17 -5z"/> </g> </svg> 